<svg width="53" height="60" viewBox="0 0 53 60" fill="none" xmlns="http://www.w3.org/2000/svg">
<path d="M26.7799 23.7527C23.3352 23.7527 20.5326 26.5553 20.5326 30C20.5326 33.4447 23.3352 36.2473 26.7799 36.2473C30.2246 36.2473 33.0271 33.4447 33.0271 30C33.0271 26.5553 30.2246 23.7527 26.7799 23.7527ZM26.7799 34.3723C24.369 34.3723 22.4076 32.4109 22.4076 30C22.4076 27.5891 24.369 25.6277 26.7799 25.6277C29.1908 25.6277 31.1521 27.5891 31.1521 30C31.1521 32.4109 29.1908 34.3723 26.7799 34.3723ZM40.1523 27.5743L36.8983 26.9054C36.7005 26.2575 36.4411 25.6311 36.1228 25.0334L37.9508 22.2594C38.1956 21.8878 38.1455 21.3953 37.8309 21.0806L35.6993 18.949C35.3845 18.6342 34.892 18.5843 34.5205 18.8291L31.7465 20.6571C31.1486 20.3388 30.5224 20.0794 29.8745 19.8817L29.2055 16.6276C29.1159 16.1917 28.7322 15.8789 28.2873 15.8789H25.2725C24.8275 15.8789 24.4439 16.1917 24.3542 16.6276L23.6853 19.8817C23.0374 20.0794 22.411 20.3388 21.8132 20.6571L19.0393 18.8291C18.6678 18.5842 18.1752 18.6343 17.8605 18.949L15.7289 21.0806C15.4142 21.3953 15.3641 21.8878 15.609 22.2594L17.437 25.0334C17.1186 25.6313 16.8591 26.2575 16.6614 26.9053L13.4075 27.5742C12.9716 27.6639 12.6588 28.0475 12.6588 28.4925V31.5073C12.6588 31.9522 12.9716 32.3359 13.4075 32.4255L16.6614 33.0945C16.8591 33.7424 17.1186 34.3688 17.4369 34.9665L15.6089 37.7405C15.3641 38.1121 15.4141 38.6046 15.7288 38.9193L17.8604 41.0509C18.1752 41.3655 18.6677 41.4156 19.0392 41.1708L21.8131 39.3428C22.411 39.6611 23.0373 39.9205 23.6851 40.1182L24.354 43.3723C24.4436 43.8082 24.8273 44.121 25.2723 44.121H28.287C28.732 44.121 29.1157 43.8082 29.2053 43.3723L29.8742 40.1182C30.5221 39.9205 31.1485 39.6611 31.7463 39.3428L34.5202 41.1708C34.8917 41.4156 35.3844 41.3655 35.699 41.0509L37.8307 38.9193C38.1453 38.6046 38.1955 38.1121 37.9506 37.7405L36.1225 34.9665C36.4408 34.3688 36.7003 33.7424 36.8981 33.0946L40.152 32.4257C40.588 32.336 40.9007 31.9523 40.9007 31.5074V28.4926C40.901 28.0477 40.5882 27.664 40.1523 27.5743ZM39.026 30.743L35.9579 31.3737C35.6029 31.4467 35.3218 31.7177 35.2359 32.0698C35.0253 32.9332 34.6843 33.7561 34.2227 34.5155C34.0344 34.8252 34.0415 35.2158 34.2409 35.5184L35.9645 38.1339L34.9137 39.1846L32.2982 37.461C31.9957 37.2615 31.6051 37.2544 31.2952 37.4428C30.5361 37.9044 29.7133 38.2453 28.8496 38.456C28.4976 38.5418 28.2264 38.823 28.1536 39.178L27.5229 42.2461H26.0369L25.4062 39.178C25.3332 38.823 25.0621 38.5418 24.7101 38.456C23.8467 38.2454 23.0238 37.9045 22.2644 37.4428C21.9548 37.2546 21.5642 37.2615 21.2615 37.461L18.646 39.1846L17.5953 38.1339L19.3189 35.5184C19.5184 35.2157 19.5254 34.8251 19.3371 34.5154C18.8755 33.7562 18.5346 32.9334 18.3239 32.0698C18.2381 31.7177 17.9568 31.4466 17.6019 31.3737L14.5338 30.743V29.257L17.6019 28.6263C17.9568 28.5533 18.2381 28.2823 18.3239 27.9302C18.5345 27.0669 18.8754 26.244 19.3371 25.4845C19.5253 25.1748 19.5182 24.7843 19.3188 24.4816L17.5952 21.8661L18.6459 20.8154L21.2614 22.539C21.5641 22.7385 21.9546 22.7456 22.2644 22.5572C23.0236 22.0956 23.8463 21.7547 24.71 21.544C25.062 21.4582 25.3332 21.177 25.4061 20.822L26.0368 17.7539H27.5227L28.1534 20.822C28.2264 21.177 28.4975 21.4582 28.8495 21.544C29.7131 21.7546 30.536 22.0955 31.2952 22.5572C31.605 22.7455 31.9954 22.7384 32.2981 22.539L34.9136 20.8154L35.9643 21.8661L34.2407 24.4816C34.0413 24.7843 34.0343 25.1749 34.2226 25.4846C34.6842 26.2438 35.0251 27.0666 35.2358 27.9302C35.3217 28.2824 35.6028 28.5534 35.9578 28.6263L39.0259 29.257L39.026 30.743ZM48.4879 37.0014V22.9986C50.8419 22.5573 52.6291 20.4881 52.6291 18.0081C52.6291 15.2077 50.3509 12.9293 47.5504 12.9293C46.0118 12.9293 44.6318 13.618 43.6996 14.7023L31.5706 7.69969C31.7564 7.17246 31.8587 6.60621 31.8587 6.01629C31.8587 3.21574 29.5803 0.9375 26.7799 0.9375C23.9795 0.9375 21.7011 3.21574 21.7011 6.01617C21.7011 6.60609 21.8033 7.17246 21.9891 7.69957L9.86012 14.7023C8.92801 13.6181 7.54801 12.9293 6.00934 12.9293C3.20902 12.9293 0.930664 15.2077 0.930664 18.0081C0.930664 20.4881 2.71801 22.5573 5.07184 22.9986V37.0014C2.71801 37.4426 0.930664 39.5118 0.930664 41.9918C0.930664 44.7922 3.20891 47.0706 6.00934 47.0706C7.54801 47.0706 8.92801 46.3819 9.86012 45.2975L21.9891 52.3003C21.8034 52.8275 21.7011 53.3938 21.7011 53.9837C21.7011 56.7841 23.9795 59.0625 26.7799 59.0625C29.5803 59.0625 31.8587 56.7841 31.8587 53.9837C31.8587 53.3938 31.7565 52.8275 31.5706 52.3003L43.6996 45.2975C44.6318 46.3818 46.0118 47.0706 47.5504 47.0706C50.3509 47.0706 52.6291 44.7922 52.6291 41.9918C52.6291 39.5118 50.8418 37.4426 48.4879 37.0014ZM47.5504 14.8044C49.3169 14.8044 50.7541 16.2416 50.7541 18.0082C50.7541 19.7747 49.3169 21.2119 47.5504 21.2119C45.7838 21.2119 44.3468 19.7747 44.3468 18.0082C44.3466 16.2416 45.7838 14.8044 47.5504 14.8044ZM26.7799 2.8125C28.5465 2.8125 29.9837 4.24969 29.9837 6.01617C29.9837 7.78266 28.5465 9.21996 26.7799 9.21996C25.0133 9.21996 23.5761 7.78277 23.5761 6.01617C23.5761 4.24957 25.0133 2.8125 26.7799 2.8125ZM2.80566 18.0081C2.80566 16.2415 4.24285 14.8043 6.00934 14.8043C7.77594 14.8043 9.21313 16.2415 9.21313 18.0081C9.21313 19.7746 7.77594 21.2118 6.00934 21.2118C4.24285 21.2119 2.80566 19.7747 2.80566 18.0081ZM6.00934 45.1956C4.24285 45.1956 2.80566 43.7584 2.80566 41.9918C2.80566 40.2253 4.24285 38.7881 6.00934 38.7881C7.77594 38.7881 9.21313 40.2253 9.21313 41.9918C9.21313 43.7584 7.77594 45.1956 6.00934 45.1956ZM26.7799 57.1875C25.0133 57.1875 23.5761 55.7503 23.5761 53.9837C23.5761 52.2171 25.0133 50.78 26.7799 50.78C28.5465 50.78 29.9837 52.2172 29.9837 53.9837C29.9837 55.7502 28.5465 57.1875 26.7799 57.1875ZM30.6307 50.678C29.6986 49.5938 28.3186 48.905 26.7799 48.905C25.2412 48.905 23.8612 49.5938 22.9291 50.678L10.8001 43.6752C10.9858 43.148 11.0881 42.5817 11.0881 41.9918C11.0881 39.5118 9.30078 37.4426 6.94684 37.0014V22.9986C9.30078 22.5573 11.0881 20.4881 11.0881 18.0081C11.0881 17.4182 10.9859 16.8519 10.8001 16.3247L22.9291 9.32203C23.8612 10.4062 25.2412 11.095 26.7799 11.095C28.3186 11.095 29.6986 10.4062 30.6307 9.32203L42.7597 16.3247C42.5739 16.8519 42.4716 17.4182 42.4716 18.0081C42.4716 20.4881 44.259 22.5573 46.6128 22.9986V37.0012C44.2589 37.4426 42.4716 39.5118 42.4716 41.9917C42.4716 42.5816 42.5738 43.1479 42.7597 43.6751L30.6307 50.678ZM47.5504 45.1956C45.7838 45.1956 44.3468 43.7584 44.3468 41.9918C44.3468 40.2253 45.7839 38.7881 47.5504 38.7881C49.3169 38.7881 50.7541 40.2253 50.7541 41.9918C50.7541 43.7584 49.3169 45.1956 47.5504 45.1956Z" fill="#7558EA"/>
<mask id="mask0_2402_1848" style="mask-type:alpha" maskUnits="userSpaceOnUse" x="0" y="0" width="53" height="60">
<path d="M26.7799 23.7527C23.3352 23.7527 20.5326 26.5553 20.5326 30C20.5326 33.4447 23.3352 36.2473 26.7799 36.2473C30.2246 36.2473 33.0271 33.4447 33.0271 30C33.0271 26.5553 30.2246 23.7527 26.7799 23.7527ZM26.7799 34.3723C24.369 34.3723 22.4076 32.4109 22.4076 30C22.4076 27.5891 24.369 25.6277 26.7799 25.6277C29.1908 25.6277 31.1521 27.5891 31.1521 30C31.1521 32.4109 29.1908 34.3723 26.7799 34.3723ZM40.1523 27.5743L36.8983 26.9054C36.7005 26.2575 36.4411 25.6311 36.1228 25.0334L37.9508 22.2594C38.1956 21.8878 38.1455 21.3953 37.8309 21.0806L35.6993 18.949C35.3845 18.6342 34.892 18.5843 34.5205 18.8291L31.7465 20.6571C31.1486 20.3388 30.5224 20.0794 29.8745 19.8817L29.2055 16.6276C29.1159 16.1917 28.7322 15.8789 28.2873 15.8789H25.2725C24.8275 15.8789 24.4439 16.1917 24.3542 16.6276L23.6853 19.8817C23.0374 20.0794 22.411 20.3388 21.8132 20.6571L19.0393 18.8291C18.6678 18.5842 18.1752 18.6343 17.8605 18.949L15.7289 21.0806C15.4142 21.3953 15.3641 21.8878 15.609 22.2594L17.437 25.0334C17.1186 25.6313 16.8591 26.2575 16.6614 26.9053L13.4075 27.5742C12.9716 27.6639 12.6588 28.0475 12.6588 28.4925V31.5073C12.6588 31.9522 12.9716 32.3359 13.4075 32.4255L16.6614 33.0945C16.8591 33.7424 17.1186 34.3688 17.4369 34.9665L15.6089 37.7405C15.3641 38.1121 15.4141 38.6046 15.7288 38.9193L17.8604 41.0509C18.1752 41.3655 18.6677 41.4156 19.0392 41.1708L21.8131 39.3428C22.411 39.6611 23.0373 39.9205 23.6851 40.1182L24.354 43.3723C24.4436 43.8082 24.8273 44.121 25.2723 44.121H28.287C28.732 44.121 29.1157 43.8082 29.2053 43.3723L29.8742 40.1182C30.5221 39.9205 31.1485 39.6611 31.7463 39.3428L34.5202 41.1708C34.8917 41.4156 35.3844 41.3655 35.699 41.0509L37.8307 38.9193C38.1453 38.6046 38.1955 38.1121 37.9506 37.7405L36.1225 34.9665C36.4408 34.3688 36.7003 33.7424 36.8981 33.0946L40.152 32.4257C40.588 32.336 40.9007 31.9523 40.9007 31.5074V28.4926C40.901 28.0477 40.5882 27.664 40.1523 27.5743ZM39.026 30.743L35.9579 31.3737C35.6029 31.4467 35.3218 31.7177 35.2359 32.0698C35.0253 32.9332 34.6843 33.7561 34.2227 34.5155C34.0344 34.8252 34.0415 35.2158 34.2409 35.5184L35.9645 38.1339L34.9137 39.1846L32.2982 37.461C31.9957 37.2615 31.6051 37.2544 31.2952 37.4428C30.5361 37.9044 29.7133 38.2453 28.8496 38.456C28.4976 38.5418 28.2264 38.823 28.1536 39.178L27.5229 42.2461H26.0369L25.4062 39.178C25.3332 38.823 25.0621 38.5418 24.7101 38.456C23.8467 38.2454 23.0238 37.9045 22.2644 37.4428C21.9548 37.2546 21.5642 37.2615 21.2615 37.461L18.646 39.1846L17.5953 38.1339L19.3189 35.5184C19.5184 35.2157 19.5254 34.8251 19.3371 34.5154C18.8755 33.7562 18.5346 32.9334 18.3239 32.0698C18.2381 31.7177 17.9568 31.4466 17.6019 31.3737L14.5338 30.743V29.257L17.6019 28.6263C17.9568 28.5533 18.2381 28.2823 18.3239 27.9302C18.5345 27.0669 18.8754 26.244 19.3371 25.4845C19.5253 25.1748 19.5182 24.7843 19.3188 24.4816L17.5952 21.8661L18.6459 20.8154L21.2614 22.539C21.5641 22.7385 21.9546 22.7456 22.2644 22.5572C23.0236 22.0956 23.8463 21.7547 24.71 21.544C25.062 21.4582 25.3332 21.177 25.4061 20.822L26.0368 17.7539H27.5227L28.1534 20.822C28.2264 21.177 28.4975 21.4582 28.8495 21.544C29.7131 21.7546 30.536 22.0955 31.2952 22.5572C31.605 22.7455 31.9954 22.7384 32.2981 22.539L34.9136 20.8154L35.9643 21.8661L34.2407 24.4816C34.0413 24.7843 34.0343 25.1749 34.2226 25.4846C34.6842 26.2438 35.0251 27.0666 35.2358 27.9302C35.3217 28.2824 35.6028 28.5534 35.9578 28.6263L39.0259 29.257L39.026 30.743ZM48.4879 37.0014V22.9986C50.8419 22.5573 52.6291 20.4881 52.6291 18.0081C52.6291 15.2077 50.3509 12.9293 47.5504 12.9293C46.0118 12.9293 44.6318 13.618 43.6996 14.7023L31.5706 7.69969C31.7564 7.17246 31.8587 6.60621 31.8587 6.01629C31.8587 3.21574 29.5803 0.9375 26.7799 0.9375C23.9795 0.9375 21.7011 3.21574 21.7011 6.01617C21.7011 6.60609 21.8033 7.17246 21.9891 7.69957L9.86012 14.7023C8.92801 13.6181 7.54801 12.9293 6.00934 12.9293C3.20902 12.9293 0.930664 15.2077 0.930664 18.0081C0.930664 20.4881 2.71801 22.5573 5.07184 22.9986V37.0014C2.71801 37.4426 0.930664 39.5118 0.930664 41.9918C0.930664 44.7922 3.20891 47.0706 6.00934 47.0706C7.54801 47.0706 8.92801 46.3819 9.86012 45.2975L21.9891 52.3003C21.8034 52.8275 21.7011 53.3938 21.7011 53.9837C21.7011 56.7841 23.9795 59.0625 26.7799 59.0625C29.5803 59.0625 31.8587 56.7841 31.8587 53.9837C31.8587 53.3938 31.7565 52.8275 31.5706 52.3003L43.6996 45.2975C44.6318 46.3818 46.0118 47.0706 47.5504 47.0706C50.3509 47.0706 52.6291 44.7922 52.6291 41.9918C52.6291 39.5118 50.8418 37.4426 48.4879 37.0014ZM47.5504 14.8044C49.3169 14.8044 50.7541 16.2416 50.7541 18.0082C50.7541 19.7747 49.3169 21.2119 47.5504 21.2119C45.7838 21.2119 44.3468 19.7747 44.3468 18.0082C44.3466 16.2416 45.7838 14.8044 47.5504 14.8044ZM26.7799 2.8125C28.5465 2.8125 29.9837 4.24969 29.9837 6.01617C29.9837 7.78266 28.5465 9.21996 26.7799 9.21996C25.0133 9.21996 23.5761 7.78277 23.5761 6.01617C23.5761 4.24957 25.0133 2.8125 26.7799 2.8125ZM2.80566 18.0081C2.80566 16.2415 4.24285 14.8043 6.00934 14.8043C7.77594 14.8043 9.21313 16.2415 9.21313 18.0081C9.21313 19.7746 7.77594 21.2118 6.00934 21.2118C4.24285 21.2119 2.80566 19.7747 2.80566 18.0081ZM6.00934 45.1956C4.24285 45.1956 2.80566 43.7584 2.80566 41.9918C2.80566 40.2253 4.24285 38.7881 6.00934 38.7881C7.77594 38.7881 9.21313 40.2253 9.21313 41.9918C9.21313 43.7584 7.77594 45.1956 6.00934 45.1956ZM26.7799 57.1875C25.0133 57.1875 23.5761 55.7503 23.5761 53.9837C23.5761 52.2171 25.0133 50.78 26.7799 50.78C28.5465 50.78 29.9837 52.2172 29.9837 53.9837C29.9837 55.7502 28.5465 57.1875 26.7799 57.1875ZM30.6307 50.678C29.6986 49.5938 28.3186 48.905 26.7799 48.905C25.2412 48.905 23.8612 49.5938 22.9291 50.678L10.8001 43.6752C10.9858 43.148 11.0881 42.5817 11.0881 41.9918C11.0881 39.5118 9.30078 37.4426 6.94684 37.0014V22.9986C9.30078 22.5573 11.0881 20.4881 11.0881 18.0081C11.0881 17.4182 10.9859 16.8519 10.8001 16.3247L22.9291 9.32203C23.8612 10.4062 25.2412 11.095 26.7799 11.095C28.3186 11.095 29.6986 10.4062 30.6307 9.32203L42.7597 16.3247C42.5739 16.8519 42.4716 17.4182 42.4716 18.0081C42.4716 20.4881 44.259 22.5573 46.6128 22.9986V37.0012C44.2589 37.4426 42.4716 39.5118 42.4716 41.9917C42.4716 42.5816 42.5738 43.1479 42.7597 43.6751L30.6307 50.678ZM47.5504 45.1956C45.7838 45.1956 44.3468 43.7584 44.3468 41.9918C44.3468 40.2253 45.7839 38.7881 47.5504 38.7881C49.3169 38.7881 50.7541 40.2253 50.7541 41.9918C50.7541 43.7584 49.3169 45.1956 47.5504 45.1956Z" fill="#7558EA"/>
</mask>
<g mask="url(#mask0_2402_1848)">
<circle cx="27.2803" cy="29.5" r="15.5" fill="#58479F"/>
</g>
</svg>
