<svg width="52" height="52" viewBox="0 0 52 52" fill="none" xmlns="http://www.w3.org/2000/svg">
<g clip-path="url(#clip0_1333_5084)">
<path d="M15.4021 22.5604L15.4002 22.5935C15.2721 24.8375 16.5291 26.9398 18.6034 27.9476L18.6246 27.958C19.3559 28.3078 19.9554 28.8845 20.3335 29.6017L20.342 29.6173C21.3872 31.6074 23.549 32.8138 25.8535 32.6928L25.8885 32.6909C26.7243 32.6441 27.5539 32.8597 28.2611 33.3078C30.2125 34.5284 32.6896 34.5284 34.641 33.3078C35.3482 32.8597 36.1778 32.6441 37.0136 32.6909L37.0486 32.6928C39.3493 32.8148 41.514 31.6074 42.5615 29.614L42.5667 29.6031C42.9463 28.8841 43.5471 28.3064 44.2808 27.9561L44.2978 27.9476C46.3721 26.9393 47.6296 24.8375 47.501 22.5931L47.4991 22.5619C47.4566 21.7715 47.6759 20.9891 48.1241 20.3363C49.4141 18.4548 49.4141 15.974 48.1245 14.092C47.6769 13.4397 47.4566 12.6578 47.4991 11.8674L47.501 11.8343C47.6296 9.58982 46.3721 7.48809 44.2959 6.4793L44.277 6.46984C43.5471 6.12097 42.9491 5.54708 42.5705 4.83185L42.5596 4.81058C41.514 2.82041 39.3493 1.61449 37.0486 1.73504L37.0131 1.73693C36.1778 1.78373 35.3482 1.56816 34.6415 1.12002H34.6405C32.6891 -0.100554 30.2121 -0.100554 28.2607 1.12002C27.5535 1.56769 26.7238 1.78325 25.888 1.73645L25.8531 1.73456C23.5518 1.6126 21.3877 2.81994 20.3425 4.80963L20.3345 4.82429C19.9558 5.54283 19.3559 6.12003 18.6237 6.47031L18.6038 6.47977C16.5295 7.48762 15.2721 9.58982 15.4007 11.8343L15.4025 11.8655C15.4451 12.6559 15.2257 13.4383 14.7776 14.0906C13.4875 15.9725 13.4875 18.4539 14.7776 20.3353C15.2253 20.9877 15.4451 21.77 15.4021 22.5604ZM16.3712 15.1902C17.0628 14.1833 17.4017 12.9759 17.3355 11.7563L17.3336 11.7232C17.2656 10.236 18.1004 8.85474 19.4481 8.2227L19.4647 8.21467C20.5704 7.68522 21.4756 6.81351 22.0467 5.72908L22.0561 5.71112C22.7506 4.38844 24.2051 3.5867 25.75 3.66895L25.784 3.67037C27.0202 3.73986 28.2469 3.42124 29.2926 2.75848C30.6129 1.93263 32.2883 1.93263 33.6086 2.75848C34.6542 3.4203 35.881 3.73939 37.1167 3.67084L37.1507 3.66895C38.7031 3.58764 40.1506 4.38844 40.8432 5.70734L40.8559 5.73145C41.427 6.81446 42.3313 7.68474 43.4356 8.21372L43.4516 8.22176C44.8207 8.88735 45.6517 10.2616 45.568 11.7237L45.5661 11.7582C45.5 12.9778 45.8394 14.1847 46.531 15.1916C47.3668 16.4108 47.3663 18.018 46.53 19.2367C45.8389 20.2441 45.5 21.4514 45.5661 22.6711L45.568 22.7037C45.6517 24.1658 44.8207 25.5405 43.4512 26.2066L43.437 26.2132C42.3303 26.7436 41.4241 27.6162 40.8526 28.7025L40.8455 28.7167C40.1506 30.0394 38.6984 30.8416 37.1512 30.7589L37.1176 30.757C35.8814 30.688 34.6542 31.0071 33.6081 31.6694C32.2883 32.4947 30.6129 32.4947 29.2931 31.6694C28.342 31.0666 27.2386 30.7471 26.1126 30.748C26.0034 30.748 25.8937 30.7509 25.784 30.757L25.75 30.7584C24.2255 30.8553 22.7832 30.0574 22.0547 28.7144L22.0448 28.6959C21.4747 27.6134 20.5708 26.7436 19.467 26.2146L19.4491 26.2056C18.0796 25.54 17.2485 24.1653 17.3327 22.7037L17.3346 22.6692C17.4003 21.4495 17.0609 20.2422 16.3697 19.2358C15.5344 18.0166 15.5349 16.4093 16.3712 15.1911V15.1902Z" fill="#58479F"/>
<path d="M25.2043 27.2224C25.6576 27.5056 26.2547 27.3671 26.5378 26.9137L38.0066 8.54084C38.1938 8.24728 38.2094 7.87572 38.0468 7.56797C37.8842 7.25976 37.5684 7.0631 37.2205 7.05223C36.8725 7.04136 36.5454 7.21816 36.3639 7.5155L24.8956 25.8884C24.6124 26.3422 24.7505 26.9393 25.2043 27.2224Z" fill="#58479F"/>
<path d="M26.2319 17.2616C28.5893 17.2616 30.5077 15.0743 30.5077 12.3859C30.5077 9.69756 28.5893 7.51074 26.2319 7.51074C23.8744 7.51074 21.9565 9.69756 21.9565 12.3859C21.9565 15.0743 23.8744 17.2616 26.2319 17.2616ZM26.2319 9.44702C27.5219 9.44702 28.5714 10.7654 28.5714 12.3859C28.5714 14.0064 27.5219 15.3253 26.2319 15.3253C24.9423 15.3253 23.8928 14.006 23.8928 12.3859C23.8928 10.7659 24.9423 9.44702 26.2319 9.44702Z" fill="#58479F"/>
<path d="M32.3945 22.0429C32.3945 24.7313 34.3124 26.9181 36.6698 26.9181C39.0273 26.9181 40.9456 24.7308 40.9456 22.0429C40.9456 19.3555 39.0278 17.1677 36.6703 17.1677C34.3124 17.1677 32.3945 19.3541 32.3945 22.0429ZM39.0094 22.0429C39.0094 23.6634 37.9599 24.9819 36.6698 24.9819C35.3803 24.9819 34.3308 23.6634 34.3308 22.0429C34.3308 20.4224 35.3803 19.104 36.6698 19.104C37.9599 19.104 39.0094 20.4215 39.0094 22.0429Z" fill="#58479F"/>
<path d="M51.8743 38.1192C50.5923 35.844 47.7493 34.9775 45.4164 36.1508L37.8325 39.734C36.7854 37.7869 34.7768 36.5474 32.5663 36.485L25.5653 36.2921C24.4568 36.2605 23.369 35.9792 22.3834 35.4705L21.671 35.1013C18.0235 33.2 13.6758 33.2048 10.0321 35.1136L10.0765 33.4997C10.0911 32.9651 9.66995 32.5198 9.1353 32.5051L1.45825 32.2938C0.923602 32.2792 0.478768 32.7004 0.464114 33.235L0.000371089 50.0824C-0.0142834 50.6171 0.406914 51.0624 0.941565 51.0771L8.61861 51.2884H8.64555C9.1698 51.2879 9.59857 50.8705 9.61322 50.3467L9.63497 49.5407L11.6294 48.4728C12.4122 48.0516 13.3279 47.9514 14.183 48.1934L26.0924 51.5361C26.1132 51.5422 26.134 51.5469 26.1553 51.5517C27.0161 51.7318 27.8935 51.8221 28.7732 51.8216C30.6357 51.8225 32.4765 51.4212 34.1694 50.644C34.211 50.6251 34.2511 50.6034 34.2894 50.5788L51.5571 39.4088C51.9878 39.1308 52.1267 38.565 51.8743 38.1192ZM1.96265 49.1677L2.37297 34.2566L8.11468 34.4145L7.70389 49.3261L1.96265 49.1677ZM33.2967 48.9139C31.1936 49.8631 28.8446 50.125 26.584 49.6627L14.7064 46.3295C13.37 45.9513 11.9386 46.1083 10.7156 46.7658L9.69642 47.3113L9.96965 37.3969C13.1988 35.2488 17.3408 35.0281 20.7804 36.8202L21.4928 37.1894C22.7379 37.8323 24.1117 38.1873 25.5124 38.2275L32.5134 38.4203C34.4799 38.4766 36.1501 39.8768 36.549 41.8036L26.1208 41.5167C25.5861 41.502 25.1413 41.9232 25.1266 42.4579C25.112 42.9925 25.5332 43.4378 26.0678 43.4525L37.5763 43.7692H37.6037C38.1275 43.7687 38.5562 43.3513 38.5709 42.8275C38.5827 42.4068 38.551 41.9856 38.4773 41.5715L46.2546 37.8961L46.2772 37.8852C47.3806 37.3265 48.7151 37.5132 49.6222 38.3532L33.2967 48.9139Z" fill="#43B0FF"/>
</g>
<defs>
<clipPath id="clip0_1333_5084">
<rect width="52" height="52" fill="white"/>
</clipPath>
</defs>
</svg>
