<svg width="55" height="54" viewBox="0 0 55 54" fill="none" xmlns="http://www.w3.org/2000/svg">
<g clip-path="url(#clip0_1333_5068)">
<path d="M30.0537 4.61468C30.6361 4.61468 31.1084 4.1425 31.1084 3.55999V1.05469C31.1084 0.472184 30.6361 0 30.0537 0C29.4713 0 28.999 0.472184 28.999 1.05469V3.55999C28.999 4.1425 29.4713 4.61468 30.0537 4.61468Z" fill="#58479F"/>
<path d="M50.5197 36.6789C50.5197 35.3816 49.9434 34.2165 49.0332 33.4262C49.9434 32.6359 50.5197 31.4708 50.5197 30.1736C50.5197 27.7984 48.5875 25.8662 46.2123 25.8662H33.4031L34.8817 20.2852C36.1026 15.6798 33.9493 11.3766 31.2542 10.0307C29.6731 9.24078 28.4035 9.11496 27.3727 9.64589C25.9651 10.3709 25.521 12.0593 25.2507 13.775C24.2237 20.2599 22.6874 24.6409 17.9237 28.2481C17.5904 26.9987 16.4494 26.0754 15.0964 26.0754H7.96627C6.35281 26.0754 5.04004 27.388 5.04004 29.0016V50.2218C5.04004 51.8353 6.3527 53.1481 7.96627 53.1481H15.0965C16.4567 53.1481 17.603 52.2151 17.9294 50.9556C21.089 52.7556 25.9448 54 29.025 54H43.7368C46.112 54 48.0443 52.0677 48.0443 49.6927C48.0443 48.8267 47.7873 48.0193 47.3457 47.3433C49.1727 46.8442 50.5197 45.1686 50.5197 43.1843C50.5197 41.8871 49.9434 40.7219 49.0332 39.9317C49.9434 39.1413 50.5197 37.9762 50.5197 36.6789ZM15.9133 50.2218C15.9133 50.6646 15.5393 51.0387 15.0966 51.0387H7.96627C7.52351 51.0387 7.14941 50.6647 7.14941 50.2218V29.0016C7.14941 28.5589 7.52341 28.1848 7.96627 28.1848H15.0965C15.5392 28.1848 15.9132 28.5588 15.9132 29.0016V50.2218H15.9133ZM41.7787 34.4809H46.2123C47.4242 34.4809 48.4104 35.467 48.4104 36.6789C48.4104 37.8908 47.4242 38.8769 46.2123 38.8769H41.7787C41.1963 38.8769 40.724 39.349 40.724 39.9316C40.724 40.5141 41.1963 40.9862 41.7787 40.9862H46.2123C47.4242 40.9862 48.4104 41.9723 48.4104 43.1842C48.4104 44.3978 47.4242 45.3852 46.2123 45.3852H43.7368H41.7787C41.1963 45.3852 40.724 45.8574 40.724 46.4399C40.724 47.0224 41.1963 47.4946 41.7787 47.4946H43.7368C44.9488 47.4946 45.9349 48.4806 45.9349 49.6926C45.9349 50.9045 44.9489 51.8907 43.7369 51.8907H29.0251C25.9919 51.8907 20.6082 50.4088 18.0227 48.5148V30.7641C20.9417 28.815 22.9921 26.6252 24.446 23.9079C25.776 21.4219 26.6399 18.4901 27.3344 14.1042C27.4313 13.4893 27.6885 11.8562 28.3387 11.5212C28.7129 11.3283 29.4137 11.4692 30.3117 11.918C32.017 12.7696 33.8454 15.9631 32.8427 19.7448L31.013 26.6508C30.8387 27.3086 31.3522 27.9756 32.0326 27.9756H46.2122C47.4241 27.9756 48.4103 28.9616 48.4103 30.1736C48.4103 31.3855 47.4241 32.3716 46.2122 32.3716H41.7786C41.1962 32.3716 40.7239 32.8437 40.7239 33.4262C40.7239 34.0087 41.1963 34.4809 41.7787 34.4809Z" fill="#43B0FF"/>
<path d="M11.7783 31.926C11.1958 31.926 10.7236 32.4012 10.7236 32.9837C10.7236 33.5662 11.1958 34.0384 11.7783 34.0384C12.3608 34.0384 12.833 33.5662 12.833 32.9837V32.9777C12.833 32.3953 12.3608 31.926 11.7783 31.926Z" fill="#43B0FF"/>
<path d="M17.9242 5.20103L19.7987 6.86322C19.9996 7.04125 20.2493 7.12879 20.4981 7.12879C20.7893 7.12879 21.0792 7.00887 21.2876 6.77389C21.6742 6.33809 21.6341 5.67142 21.1983 5.28498L19.3238 3.6228C18.888 3.23625 18.2215 3.27633 17.8349 3.71213C17.4485 4.14803 17.4884 4.81459 17.9242 5.20103Z" fill="#58479F"/>
<path d="M39.6088 7.12903C39.8575 7.12903 40.1073 7.04149 40.3081 6.86346L42.1826 5.20127C42.6184 4.81484 42.6585 4.14828 42.2721 3.71237C41.8856 3.27658 41.2193 3.2365 40.7832 3.62304L38.9087 5.28523C38.4729 5.67167 38.4328 6.33823 38.8192 6.77413C39.0276 7.00911 39.3175 7.12903 39.6088 7.12903Z" fill="#58479F"/>
<path d="M14.5322 14.5899L17.0375 14.6946C17.0525 14.6952 17.0674 14.6955 17.0823 14.6955C17.6446 14.6955 18.1116 14.2518 18.1353 13.6848C18.1596 13.1028 17.7075 12.6113 17.1255 12.587L14.6202 12.4824C14.0384 12.4584 13.5467 12.91 13.5224 13.4921C13.4982 14.0742 13.9502 14.5657 14.5322 14.5899Z" fill="#58479F"/>
<path d="M41.9716 13.685C41.9954 14.252 42.4624 14.6957 43.0246 14.6957C43.0395 14.6957 43.0544 14.6954 43.0694 14.6948L45.5747 14.5901C46.1567 14.5659 46.6088 14.0743 46.5844 13.4923C46.5601 12.9103 46.0675 12.4592 45.4867 12.4826L42.9814 12.5872C42.3994 12.6115 41.9474 13.103 41.9716 13.685Z" fill="#58479F"/>
</g>
<defs>
<clipPath id="clip0_1333_5068">
<rect width="54" height="54" fill="white" transform="translate(0.780273)"/>
</clipPath>
</defs>
</svg>
