<?xml version="1.0" encoding="UTF-8" standalone="no"?>
<!-- Created with Inkscape (http://www.inkscape.org/) -->

<svg
   version="1.1"
   id="svg1161"
   xml:space="preserve"
   width="682.66669"
   height="682.66669"
   viewBox="0 0 682.66669 682.66669"
   xmlns="http://www.w3.org/2000/svg"
   xmlns:svg="http://www.w3.org/2000/svg"><defs
     id="defs1165"><clipPath
       clipPathUnits="userSpaceOnUse"
       id="clipPath1175"><path
         d="M 0,512 H 512 V 0 H 0 Z"
         id="path1173" /></clipPath></defs><g
     id="g1167"
     transform="matrix(1.3333333,0,0,-1.3333333,0,682.66667)"><g
       id="g1169"><g
         id="g1171"
         clip-path="url(#clipPath1175)"><g
           id="g1177"
           transform="translate(204.6147,453.0654)"><path
             d="m 0,0 c 0,-10.399 -8.431,-18.83 -18.83,-18.83 -10.399,0 -18.829,8.431 -18.829,18.83 0,10.399 8.43,18.83 18.829,18.83 C -8.431,18.83 0,10.399 0,0 Z"
             style="fill:none;stroke:#000000;stroke-width:15;stroke-linecap:round;stroke-linejoin:round;stroke-miterlimit:10;stroke-dasharray:none;stroke-opacity:1"
             id="path1179" /></g><g
           id="g1181"
           transform="translate(393.2041,195.5254)"><path
             d="m 0,0 c 0,-10.399 -8.43,-18.83 -18.83,-18.83 -10.399,0 -18.829,8.431 -18.829,18.83 0,10.399 8.43,18.83 18.829,18.83 C -8.43,18.83 0,10.399 0,0 Z"
             style="fill:none;stroke:#000000;stroke-width:15;stroke-linecap:round;stroke-linejoin:round;stroke-miterlimit:10;stroke-dasharray:none;stroke-opacity:1"
             id="path1183" /></g><g
           id="g1185"
           transform="translate(105.1514,61.4258)"><path
             d="m 0,0 c 41.06,-33.696 93.593,-53.926 150.854,-53.926 4.334,0 8.649,0.113 12.932,0.351 l -6.182,15.008 c -3.964,9.622 -0.738,20.678 7.69,26.691 5.893,4.18 9.382,10.961 9.382,18.187 -0.497,4.313 2.133,14.147 -6.038,22.862 L 156.984,41.6 c -7.152,7.628 -8.05,19.209 -2.157,27.847 l 3.128,4.583 c 8.37,12.283 2.632,29.158 -11.477,33.793 l -33.834,11.106 c -3.108,1.022 -5.719,3.137 -7.36,5.966 l -23.203,39.913 c -5.047,8.701 -17.557,8.866 -22.842,0.299 l -5.552,-9 c -2.457,-3.974 -6.761,-6.327 -11.323,-6.327 -8.746,0 -15.091,8.259 -12.902,16.679 l 12.015,45.994 c 0.949,3.664 3.426,6.75 6.791,8.484 l 24.483,12.603 c 5.518,2.828 8.198,9.001 6.904,14.728 -2.27,10.229 -10.507,18.063 -20.828,19.828 -12.499,2.61 -20.505,2.049 -30.521,8.133 l -35.527,21.562 c -8.784,5.336 -15.256,13.769 -18.125,23.636 l -4.933,16.938 c -35.445,-41.554 -56.83,-95.443 -56.83,-154.328 0,-63.361 24.768,-120.932 65.145,-163.575"
             style="fill:none;stroke:#000000;stroke-width:15;stroke-linecap:round;stroke-linejoin:round;stroke-miterlimit:10;stroke-dasharray:none;stroke-opacity:1"
             id="path1187" /></g><g
           id="g1189"
           transform="translate(185.9761,504.4995)"><path
             d="m 0,0 c -29.992,0.109 -53.28,-25.902 -51.493,-55.842 1.824,-30.556 22.118,-58.068 36.626,-74.027 7.86,-8.646 21.465,-8.672 29.327,-0.027 15.204,16.719 36.783,46.141 36.783,78.462 C 51.243,-23.091 28.319,-0.103 0,0 Z"
             style="fill:none;stroke:#000000;stroke-width:15;stroke-linecap:round;stroke-linejoin:round;stroke-miterlimit:10;stroke-dasharray:none;stroke-opacity:1"
             id="path1191" /></g><g
           id="g1193"
           transform="translate(438.2314,398.48)"><path
             d="m 0,0 -9.671,-17.196 c -3.676,-6.569 -10.513,-11.135 -18.383,-11.766 -7.865,-0.63 -14.873,-5.213 -18.599,-12.159 l -8.856,-16.504 c -4.325,-8.062 -12.984,-12.83 -22.119,-12.18 -5.53,0.37 -6.572,0.548 -9.207,0.548 -12.024,0 -23.554,-5.027 -31.749,-13.955 -16.168,-17.653 -8.396,-36.39 -21.706,-54.075 l -20.189,-26.939 c -4.696,-6.275 -3.354,-15.183 2.994,-19.787 l 17.495,-12.685 c 3.395,-2.456 7.71,-3.272 11.776,-2.219 5.73,1.428 10.164,2.585 13.692,3.522 4.068,24.575 24.954,43.968 50.856,43.874 28.319,-0.103 51.243,-23.091 51.243,-51.434 0,-5.976 -0.741,-11.852 -2.04,-17.568 0.176,-0.13 0.355,-0.266 0.54,-0.41 l 46.085,-35.444 c 15.101,31.253 23.565,66.326 23.565,103.36 C 55.727,-94.752 34.773,-41.369 0,0 Z"
             style="fill:none;stroke:#000000;stroke-width:15;stroke-linecap:round;stroke-linejoin:round;stroke-miterlimit:10;stroke-dasharray:none;stroke-opacity:1"
             id="path1195" /></g><g
           id="g1197"
           transform="translate(351.9082,463.3013)"><path
             d="m 0,0 c -29.338,12.937 -61.78,20.125 -95.903,20.125 -9.33,0 -18.532,-0.546 -27.581,-1.59 5.551,-8.212 8.796,-18.112 8.796,-28.771 0,-32.321 -21.581,-61.743 -36.784,-78.462 -7.862,-8.644 -21.466,-8.619 -29.327,0.028 -14.508,15.959 -34.803,43.47 -36.626,74.026 -0.028,0.467 -0.032,0.929 -0.048,1.393 -22.517,-13.41 -42.645,-30.415 -59.563,-50.249 v -0.01 l 4.933,-16.938 c 2.87,-9.867 9.341,-18.3 18.125,-23.636 l 35.527,-21.562 c 10.016,-6.085 18.022,-5.524 30.521,-8.134 10.322,-1.764 18.558,-9.598 20.828,-19.827 1.294,-5.728 -1.386,-11.9 -6.904,-14.729 l -24.483,-12.602 c -3.365,-1.735 -5.842,-4.821 -6.791,-8.485 l -12.015,-45.993 c -2.188,-8.42 4.156,-16.679 12.902,-16.679 4.562,0 8.867,2.353 11.323,6.326 l 5.552,9.001 c 5.286,8.567 17.795,8.402 22.842,-0.299 l 23.203,-39.914 c 1.641,-2.828 4.252,-4.944 7.36,-5.966 l 33.834,-11.106 c 14.109,-4.634 19.847,-21.509 11.477,-33.792 l -3.128,-4.583 c -5.893,-8.639 -4.995,-20.22 2.158,-27.847 l 11.653,-12.428 c 8.171,-8.714 5.541,-18.549 6.038,-22.862 0,-7.225 -3.488,-14.006 -9.382,-18.186 -8.428,-6.014 -11.654,-17.069 -7.69,-26.692 l 6.182,-15.008 c 88.849,4.759 164.764,58.255 201.456,134.253 L 72.4,-285.754 c -0.185,0.144 -0.364,0.279 -0.54,0.41 -5.725,-25.198 -22.35,-47.267 -34.743,-60.894 -7.861,-8.645 -21.467,-8.619 -29.326,0.027 -14.508,15.959 -34.803,43.471 -36.627,74.027 -0.243,4.083 -0.006,8.088 0.637,11.968 -3.528,-0.937 -7.962,-2.094 -13.692,-3.522 -4.066,-1.053 -8.38,-0.238 -11.776,2.219 l -17.495,12.685 c -6.348,4.604 -7.69,13.511 -2.993,19.787 l 20.188,26.939 c 13.31,17.685 5.538,36.421 21.706,54.074 8.196,8.929 19.725,13.955 31.749,13.955 2.635,0 3.677,-0.177 9.207,-0.547 9.135,-0.65 17.794,4.118 22.119,12.18 l 8.856,16.504 c 3.726,6.946 10.734,11.529 18.6,12.158 7.87,0.632 14.707,5.198 18.382,11.767 l 9.671,17.196 C 69.73,-45.073 49.979,-28.071 27.856,-14.57"
             style="fill:none;stroke:#000000;stroke-width:15;stroke-linecap:round;stroke-linejoin:round;stroke-miterlimit:10;stroke-dasharray:none;stroke-opacity:1"
             id="path1199" /></g><g
           id="g1201"
           transform="translate(374.5659,246.959)"><path
             d="m 0,0 c -29.992,0.109 -53.28,-25.902 -51.493,-55.841 1.824,-30.556 22.118,-58.068 36.626,-74.028 7.86,-8.646 21.465,-8.672 29.327,-0.027 15.204,16.719 36.783,46.141 36.783,78.462 C 51.243,-23.091 28.318,-0.103 0,0 Z"
             style="fill:none;stroke:#000000;stroke-width:15;stroke-linecap:round;stroke-linejoin:round;stroke-miterlimit:10;stroke-dasharray:none;stroke-opacity:1"
             id="path1203" /></g></g></g></g></svg>
