<svg width="56" height="62" viewBox="0 0 56 62" fill="none" xmlns="http://www.w3.org/2000/svg">
<path d="M40.2263 27.5458C40.2707 26.7075 40.2982 25.8428 40.2982 24.8994C40.2982 20.0455 38.8143 15.007 35.8866 9.92264C35.8843 9.91863 35.8807 9.91582 35.8784 9.91187C32.5497 4.13352 28.5849 0.431159 28.4182 0.275911C28.0571 -0.056814 27.5034 -0.056814 27.1423 0.275911C26.9757 0.431102 23.0134 4.1314 19.6862 9.90654C19.6826 9.91244 19.6773 9.91668 19.6739 9.92264C16.7463 15.007 15.2623 20.0455 15.2623 24.8994C15.2623 25.8371 15.29 26.7031 15.335 27.5457C10.847 30.5449 8.07617 35.6918 8.07617 41.1245C8.07617 41.4921 8.29066 41.8257 8.62521 41.9783C8.74987 42.0352 8.88278 42.0631 9.01477 42.0631C9.23658 42.0631 9.45565 41.9847 9.6298 41.834C12.1579 39.6424 14.5099 37.9954 16.7878 36.8233C17.3969 39.1142 18.179 41.1776 19.129 42.9691L17.5034 47.95C17.4099 48.2355 17.4594 48.549 17.6354 48.7923C17.8123 49.0357 18.0946 49.1796 18.3952 49.1796H20.6217C21.1177 56.1227 26.8898 61.4931 27.1469 61.7278C27.3265 61.8914 27.5529 61.9734 27.7803 61.9734C28.0076 61.9734 28.234 61.8914 28.4136 61.7278C28.6707 61.4931 34.4428 56.1227 34.9388 49.1796H37.1653C37.4659 49.1796 37.7483 49.0357 37.9252 48.7923C38.1011 48.549 38.1506 48.2355 38.0571 47.95L36.4318 42.9699C37.3829 41.1762 38.1651 39.1108 38.7732 36.8237C41.0504 37.9958 43.403 39.6423 45.9316 41.834C46.1058 41.9847 46.3248 42.0631 46.5467 42.0631C46.6787 42.0631 46.8116 42.0352 46.9362 41.9783C47.2708 41.8257 47.4853 41.4921 47.4853 41.1245C47.4853 35.6922 44.7143 30.5457 40.2263 27.5458ZM27.7803 2.28555C28.8774 3.41159 31.2138 5.97394 33.4091 9.45242H22.1514C24.3467 5.97394 26.6831 3.41159 27.7803 2.28555ZM21.0341 11.3296H34.5264C37.1112 15.9635 38.421 20.5267 38.421 24.8994C38.421 26.0048 38.3899 27.0094 38.3266 27.9736C38.2766 28.7753 38.1992 29.5623 38.1092 30.3418C38.046 30.889 37.9757 31.4319 37.8929 31.9669C37.7184 33.0947 37.5052 34.1958 37.245 35.2569C37.2448 35.258 37.2451 35.259 37.2449 35.26C37.2443 35.2625 37.2438 35.265 37.2432 35.2675C36.6549 37.7949 35.8548 40.0396 34.8616 41.9495H28.7189V33.8055C28.7189 33.2872 28.2991 32.8669 27.7803 32.8669C27.2615 32.8669 26.8417 33.2872 26.8417 33.8055V41.9495H20.6989C19.7066 40.0405 18.9057 37.7949 18.3155 35.2569C17.7573 32.9801 17.3943 30.5296 17.2348 27.97C17.1706 26.9998 17.1395 25.9956 17.1395 24.8994C17.1395 20.5267 18.4493 15.9635 21.0341 11.3296ZM10.1147 38.9893C10.6656 35.3513 12.6005 32.0103 15.4924 29.7381C15.4968 29.7833 15.5048 29.8264 15.5093 29.8715C15.5899 30.6763 15.6913 31.4681 15.8116 32.247C15.8382 32.4196 15.8707 32.5874 15.8993 32.7587C16.0027 33.3787 16.1186 33.9885 16.2471 34.5884C16.273 34.7095 16.2904 34.8373 16.3173 34.9577C14.309 35.9499 12.2623 37.2803 10.1147 38.9893ZM27.7803 59.7026C26.3366 58.1659 22.8975 54.0357 22.4897 49.1796H33.0709C32.663 54.0357 29.2239 58.1659 27.7803 59.7026ZM34.0489 47.3024H21.5117H19.6885L20.8228 43.828H34.7377L35.872 47.3024H34.0489ZM39.2432 34.9577C39.2694 34.8408 39.2862 34.7169 39.3114 34.5994C39.4403 33.9977 39.5565 33.3869 39.6603 32.7666C39.6897 32.5909 39.723 32.4185 39.7504 32.2414C39.8705 31.4631 39.9717 30.6728 40.0522 29.8707C40.0567 29.8259 40.0647 29.7831 40.0691 29.7381C42.9609 32.0108 44.8968 35.3513 45.4468 38.9898C43.2982 37.2803 41.2515 35.9499 39.2432 34.9577Z" fill="#7558EA"/>
<path d="M27.7805 27.9059C31.1206 27.9059 33.8383 25.1887 33.8383 21.8486C33.8383 18.5085 31.1206 15.7913 27.7805 15.7913C24.4404 15.7913 21.7236 18.5085 21.7236 21.8486C21.7236 25.1887 24.4404 27.9059 27.7805 27.9059ZM27.7805 17.6685C30.0857 17.6685 31.9611 19.5438 31.9611 21.8486C31.9611 24.1534 30.0857 26.0287 27.7805 26.0287C25.4762 26.0287 23.6008 24.1534 23.6008 21.8486C23.6008 19.5438 25.4762 17.6685 27.7805 17.6685Z" fill="#7558EA"/>
<path d="M42.7628 43.3C42.244 43.3 41.8242 43.7203 41.8242 44.2386V50.1768C41.8242 50.6952 42.244 51.1154 42.7628 51.1154C43.2816 51.1154 43.7014 50.6952 43.7014 50.1768V44.2386C43.7014 43.7203 43.2816 43.3 42.7628 43.3Z" fill="#58479F"/>
<path d="M48.5646 49.1013C48.0458 49.1013 47.626 49.5216 47.626 50.0399V55.9785C47.626 56.4969 48.0458 56.9171 48.5646 56.9171C49.0834 56.9171 49.5032 56.4969 49.5032 55.9785V50.0399C49.5032 49.5216 49.0834 49.1013 48.5646 49.1013Z" fill="#58479F"/>
<path d="M54.3654 43.3C53.8466 43.3 53.4268 43.7203 53.4268 44.2386V50.1768C53.4268 50.6952 53.8466 51.1154 54.3654 51.1154C54.8841 51.1154 55.3039 50.6952 55.3039 50.1768V44.2386C55.3039 43.7203 54.8841 43.3 54.3654 43.3Z" fill="#58479F"/>
<path d="M1.19543 43.3C0.676638 43.3 0.256836 43.7203 0.256836 44.2386V50.1768C0.256836 50.6952 0.676638 51.1154 1.19543 51.1154C1.71423 51.1154 2.13403 50.6952 2.13403 50.1768V44.2386C2.13403 43.7203 1.71423 43.3 1.19543 43.3Z" fill="#58479F"/>
<path d="M6.99621 49.1013C6.47742 49.1013 6.05762 49.5216 6.05762 50.0399V55.9785C6.05762 56.4969 6.47742 56.9171 6.99621 56.9171C7.51501 56.9171 7.93481 56.4969 7.93481 55.9785V50.0399C7.93481 49.5216 7.51501 49.1013 6.99621 49.1013Z" fill="#58479F"/>
<path d="M12.798 43.3C12.2792 43.3 11.8594 43.7203 11.8594 44.2386V50.1768C11.8594 50.6952 12.2792 51.1154 12.798 51.1154C13.3168 51.1154 13.7366 50.6952 13.7366 50.1768V44.2386C13.7366 43.7203 13.3168 43.3 12.798 43.3Z" fill="#58479F"/>
</svg>
