<?xml version="1.0" encoding="utf-8"?>
<!-- Generator: Adobe Illustrator 17.1.0, SVG Export Plug-In . SVG Version: 6.00 Build 0)  -->
<!DOCTYPE svg PUBLIC "-//W3C//DTD SVG 1.1//EN" "http://www.w3.org/Graphics/SVG/1.1/DTD/svg11.dtd">
<svg version="1.1" id="Layer_1" xmlns="http://www.w3.org/2000/svg" xmlns:xlink="http://www.w3.org/1999/xlink" x="0px" y="0px"
	 viewBox="0 0 1000 146.5" enable-background="new 0 0 1000 146.5" xml:space="preserve">
<g>
	<g>
		<g>
			<polygon fill="#18122A" points="91.1,109.5 91.1,98.1 77.5,98.1 77.5,111.8 88.8,111.8 93.8,116.7 31.7,116.7 31.7,79.4 
				38.1,85.8 38.1,99.1 53.7,99.1 53.7,83.5 40.5,83.5 10.9,54 10.9,45.4 0,45.4 0,56.3 8.6,56.3 16.7,64.4 16.7,131.7 108.7,131.7 
				116.6,139.6 116.6,146.3 125.6,146.3 125.6,137.3 118.9,137.3 			"/>
			<polygon fill="#7558EA" points="146.6,120.3 139.8,113.6 139.8,61.3 118.4,39.8 118.4,12.7 103.4,12.7 103.4,24.9 78.3,-0.3 
				36.9,41.1 13.2,17.5 13.2,12.5 6.1,12.5 6.1,19.7 11,19.7 31.9,40.6 68.9,77.5 68.9,85.3 78.8,85.3 78.8,75.3 71.1,75.3 
				47.5,51.7 78.3,20.9 124.9,67.5 124.9,98.6 77.6,51.3 77.6,45.5 69.5,45.5 69.5,53.5 75.4,53.5 115.7,93.8 124.9,103 124.9,103 
				139.8,118 144.3,122.5 144.3,134.3 158.4,134.3 158.4,120.3 			"/>
		</g>
		<g>
			<path fill="#18122A" d="M242.5,51.5v72.6h-16.8V94.4h-33v29.8h-16.8V51.5h16.8v28.6h33V51.5H242.5z"/>
			<path fill="#18122A" d="M269.3,121.3c-4.7-2.5-8.3-5.9-10.9-10.2c-2.6-4.4-3.9-9.3-3.9-14.8c0-5.5,1.3-10.5,3.9-14.8
				c2.6-4.4,6.3-7.8,10.9-10.2c4.7-2.5,9.9-3.7,15.8-3.7c5.9,0,11.1,1.2,15.8,3.7c4.6,2.5,8.3,5.9,10.9,10.2
				c2.6,4.4,3.9,9.3,3.9,14.8c0,5.5-1.3,10.5-3.9,14.8c-2.6,4.4-6.3,7.8-10.9,10.2c-4.6,2.5-9.9,3.7-15.8,3.7
				C279.2,125,274,123.7,269.3,121.3z M295.3,107.5c2.7-2.8,4-6.6,4-11.3c0-4.7-1.3-8.5-4-11.3c-2.7-2.8-6.1-4.2-10.2-4.2
				c-4.2,0-7.6,1.4-10.3,4.2c-2.7,2.8-4,6.6-4,11.3c0,4.7,1.3,8.5,4,11.3c2.7,2.8,6.1,4.2,10.3,4.2
				C289.3,111.7,292.7,110.3,295.3,107.5z"/>
			<path fill="#18122A" d="M414.7,73.7c4.1,4.1,6.2,10.3,6.2,18.5v32h-16.2V94.7c0-4.4-0.9-7.7-2.8-9.9c-1.8-2.2-4.4-3.3-7.8-3.3
				c-3.8,0-6.8,1.2-9,3.7c-2.2,2.5-3.3,6.1-3.3,10.9v28h-16.2V94.7c0-8.8-3.5-13.2-10.6-13.2c-3.7,0-6.7,1.2-8.9,3.7
				c-2.2,2.5-3.3,6.1-3.3,10.9v28h-16.2V68.3H342v6.4c2.1-2.4,4.6-4.2,7.6-5.4c3-1.2,6.3-1.9,9.9-1.9c3.9,0,7.5,0.8,10.7,2.3
				c3.2,1.6,5.7,3.8,7.7,6.8c2.3-2.9,5.2-5.2,8.7-6.7c3.5-1.6,7.3-2.4,11.5-2.4C405,67.5,410.6,69.5,414.7,73.7z"/>
			<path fill="#18122A" d="M490.4,100.8h-42.2c0.8,3.5,2.6,6.2,5.4,8.2c2.8,2,6.4,3,10.6,3c2.9,0,5.5-0.4,7.7-1.3
				c2.2-0.9,4.3-2.2,6.3-4.1l8.6,9.3c-5.3,6-12.9,9-23,9c-6.3,0-11.9-1.2-16.7-3.7c-4.8-2.5-8.6-5.9-11.2-10.2
				c-2.6-4.4-3.9-9.3-3.9-14.8c0-5.5,1.3-10.4,3.9-14.8c2.6-4.4,6.2-7.8,10.7-10.3c4.5-2.5,9.6-3.7,15.2-3.7
				c5.5,0,10.4,1.2,14.8,3.5c4.4,2.4,7.9,5.7,10.4,10.1c2.5,4.4,3.8,9.5,3.8,15.3C490.7,96.6,490.6,98.1,490.4,100.8z M452.5,82.8
				c-2.5,2.1-4,4.9-4.6,8.5h27.5c-0.6-3.5-2.1-6.3-4.6-8.5c-2.5-2.1-5.5-3.2-9.1-3.2C458.1,79.7,455,80.8,452.5,82.8z"/>
			<path fill="#18122A" d="M505.8,51.5h29.6c7.7,0,14.5,1.5,20.3,4.6c5.9,3.1,10.4,7.4,13.7,12.9c3.3,5.5,4.9,11.8,4.9,18.8
				s-1.6,13.3-4.9,18.8c-3.3,5.5-7.8,9.8-13.7,12.9c-5.9,3.1-12.7,4.6-20.3,4.6h-29.6V51.5z M535,117.5c6.4,0,11.9-1.3,16.7-3.8
				c4.8-2.5,8.5-6,11.1-10.5c2.6-4.5,3.9-9.6,3.9-15.4c0-5.8-1.3-10.9-3.9-15.4c-2.6-4.5-6.3-8-11.1-10.5
				c-4.8-2.5-10.3-3.8-16.7-3.8h-21.5v59.4H535z"/>
			<path fill="#18122A" d="M634.9,99.1h-45.7c0.4,5.7,2.6,10.3,6.5,13.7c3.9,3.5,8.9,5.2,14.9,5.2c3.4,0,6.5-0.6,9.3-1.8
				c2.8-1.2,5.3-3,7.4-5.3l4.2,4.8c-2.4,2.9-5.4,5.1-9.1,6.6c-3.6,1.5-7.6,2.3-12,2.3c-5.6,0-10.6-1.2-14.9-3.6
				c-4.3-2.4-7.7-5.7-10.1-9.9c-2.4-4.2-3.6-9-3.6-14.3c0-5.3,1.2-10.1,3.5-14.3c2.3-4.2,5.5-7.5,9.5-9.9c4-2.4,8.6-3.5,13.6-3.5
				c5,0,9.6,1.2,13.6,3.5c4,2.4,7.2,5.6,9.4,9.8c2.3,4.2,3.4,9,3.4,14.4L634.9,99.1z M595.3,80.5c-3.6,3.4-5.6,7.7-6.1,13.1H628
				c-0.5-5.4-2.5-9.8-6.1-13.1c-3.6-3.4-8-5-13.3-5C603.3,75.5,598.9,77.1,595.3,80.5z"/>
			<path fill="#18122A" d="M649.4,122.7c-4-1.3-7.2-2.9-9.5-4.8l3.3-5.8c2.3,1.8,5.2,3.3,8.6,4.4c3.5,1.1,7.1,1.7,10.8,1.7
				c5,0,8.7-0.8,11.1-2.3c2.4-1.6,3.6-3.8,3.6-6.6c0-2-0.7-3.6-2-4.7c-1.3-1.1-3-2-5-2.6c-2-0.6-4.7-1.2-8-1.7
				c-4.4-0.8-8-1.7-10.7-2.5c-2.7-0.9-5-2.3-6.9-4.4c-1.9-2.1-2.9-4.9-2.9-8.6c0-4.6,1.9-8.3,5.7-11.2c3.8-2.9,9.1-4.4,15.9-4.4
				c3.5,0,7.1,0.5,10.6,1.4c3.5,0.9,6.4,2.2,8.7,3.7l-3.2,5.9c-4.5-3.1-9.9-4.7-16.1-4.7c-4.7,0-8.3,0.8-10.6,2.5s-3.6,3.8-3.6,6.5
				c0,2.1,0.7,3.7,2,5c1.3,1.2,3,2.2,5,2.8c2,0.6,4.8,1.2,8.3,1.8c4.4,0.8,7.8,1.7,10.5,2.5c2.6,0.8,4.9,2.2,6.7,4.3
				c1.9,2,2.8,4.8,2.8,8.3c0,4.8-2,8.6-6,11.4s-9.5,4.2-16.6,4.2C657.7,124.7,653.5,124,649.4,122.7z"/>
			<path fill="#18122A" d="M695.5,56.1c-1-1-1.6-2.3-1.6-3.7c0-1.4,0.5-2.6,1.6-3.6c1-1,2.3-1.6,3.8-1.6c1.5,0,2.8,0.5,3.8,1.5
				c1,1,1.6,2.2,1.6,3.6c0,1.5-0.5,2.8-1.6,3.8c-1,1-2.3,1.6-3.8,1.6C697.9,57.6,696.6,57.1,695.5,56.1z M695.6,69.6h7.4v54.6h-7.4
				V69.6z"/>
			<path fill="#18122A" d="M771.5,69.6v47.9c0,9.3-2.3,16.1-6.8,20.6s-11.4,6.7-20.5,6.7c-5.1,0-9.8-0.7-14.4-2.2
				c-4.5-1.5-8.2-3.5-11.1-6.2l3.7-5.6c2.6,2.4,5.8,4.2,9.6,5.5c3.8,1.3,7.7,2,11.9,2c6.9,0,12-1.6,15.3-4.8c3.3-3.2,4.9-8.2,4.9-15
				v-7c-2.3,3.5-5.3,6.1-9,7.9c-3.7,1.8-7.8,2.7-12.3,2.7c-5.1,0-9.8-1.1-14-3.4c-4.2-2.2-7.5-5.4-9.9-9.4c-2.4-4-3.6-8.6-3.6-13.8
				c0-5.1,1.2-9.7,3.6-13.7c2.4-4,5.7-7.1,9.8-9.3c4.1-2.2,8.8-3.3,14-3.3c4.6,0,8.8,0.9,12.6,2.8c3.7,1.9,6.7,4.6,9,8.1V69.6H771.5
				z M754.3,113c3.2-1.7,5.7-4.1,7.4-7.1c1.8-3,2.6-6.5,2.6-10.4c0-3.9-0.9-7.3-2.6-10.3s-4.2-5.4-7.4-7.1
				c-3.1-1.7-6.7-2.5-10.7-2.5c-3.9,0-7.5,0.8-10.6,2.5c-3.1,1.7-5.6,4-7.4,7.1c-1.8,3-2.6,6.5-2.6,10.4c0,3.9,0.9,7.3,2.6,10.4
				c1.8,3,4.2,5.4,7.4,7.1c3.1,1.7,6.7,2.5,10.6,2.5S751.1,114.7,754.3,113z"/>
			<path fill="#18122A" d="M833.7,75.1c4,4,6.1,9.8,6.1,17.4v31.7h-7.4V93.2c0-5.7-1.4-10-4.3-13c-2.8-3-6.9-4.5-12.1-4.5
				c-5.9,0-10.5,1.7-14,5.2c-3.4,3.5-5.1,8.3-5.1,14.5v28.6h-7.4V69.6h7.1v10.1c2-3.3,4.8-5.9,8.4-7.7c3.6-1.8,7.7-2.8,12.4-2.8
				C824.2,69.1,829.7,71.1,833.7,75.1z"/>
			<path fill="#18122A" d="M859.1,122.7c-4-1.3-7.2-2.9-9.5-4.8l3.3-5.8c2.3,1.8,5.2,3.3,8.6,4.4c3.5,1.1,7.1,1.7,10.8,1.7
				c5,0,8.7-0.8,11.1-2.3c2.4-1.6,3.6-3.8,3.6-6.6c0-2-0.7-3.6-2-4.7c-1.3-1.1-3-2-5-2.6c-2-0.6-4.7-1.2-8-1.7
				c-4.4-0.8-8-1.7-10.7-2.5c-2.7-0.9-5-2.3-6.9-4.4c-1.9-2.1-2.9-4.9-2.9-8.6c0-4.6,1.9-8.3,5.7-11.2c3.8-2.9,9.1-4.4,15.9-4.4
				c3.5,0,7.1,0.5,10.6,1.4c3.5,0.9,6.4,2.2,8.7,3.7l-3.2,5.9c-4.5-3.1-9.9-4.7-16.1-4.7c-4.7,0-8.3,0.8-10.6,2.5s-3.6,3.8-3.6,6.5
				c0,2.1,0.7,3.7,2,5c1.3,1.2,3,2.2,5,2.8c2,0.6,4.8,1.2,8.3,1.8c4.4,0.8,7.8,1.7,10.5,2.5c2.6,0.8,4.9,2.2,6.7,4.3
				c1.9,2,2.8,4.8,2.8,8.3c0,4.8-2,8.6-6,11.4s-9.5,4.2-16.6,4.2C867.4,124.7,863.2,124,859.1,122.7z"/>
			<path fill="#7558EA" d="M951.5,108.6h-33.7l-6.4,15.6h-17.2l32.4-72.6h16.6l32.5,72.6H958L951.5,108.6z M946.2,95.8L934.7,68
				l-11.5,27.8H946.2z"/>
			<path fill="#7558EA" d="M983.2,51.5h16.8v72.6h-16.8V51.5z"/>
		</g>
	</g>
</g>
</svg>
