<svg width="34" height="36" viewBox="0 0 34 36" fill="none" xmlns="http://www.w3.org/2000/svg">
<path d="M21.8542 8.23993C22.8128 8.23993 23.6819 8.63013 24.3108 9.25963C24.9398 9.88979 25.3285 10.7599 25.3285 11.7211C25.3285 12.6823 24.9384 13.5491 24.3089 14.18C23.6819 14.8115 22.8128 15.2016 21.8542 15.2016C20.8955 15.2016 20.0264 14.8114 19.3975 14.182L19.3438 14.1235C18.7467 13.4973 18.3792 12.6504 18.3792 11.7211C18.3792 10.7918 18.7686 9.88979 19.3968 9.25963C20.0258 8.62946 20.8949 8.23993 21.8542 8.23993ZM22.9979 10.5751C22.7053 10.282 22.3013 10.1012 21.8542 10.1012C21.407 10.1012 21.003 10.2826 20.7104 10.5751C20.4179 10.8683 20.2374 11.2731 20.2374 11.7211C20.2374 12.1691 20.4026 12.5421 20.6713 12.8292L20.7104 12.8665C21.003 13.1596 21.407 13.3404 21.8542 13.3404C22.3013 13.3404 22.7053 13.1589 22.9979 12.8665C23.2912 12.576 23.4709 12.1711 23.4709 11.7211C23.4709 11.2711 23.2898 10.8683 22.9979 10.5751Z" fill="#6B5CA6"/>
<path d="M4.73094 0H29.2691C30.5442 0 31.7045 0.523142 32.5464 1.36602C33.3909 2.20823 33.913 3.37284 33.913 4.65244V30.7112C33.913 31.9908 33.3903 33.1554 32.5497 33.9976L32.4933 34.0495C31.6561 34.8618 30.5176 35.3636 29.2691 35.3636H4.73094C3.45584 35.3636 2.2955 34.8405 1.45362 33.9976C0.609076 33.1554 0.0869598 31.9908 0.0869598 30.7112V4.65244C0.0869598 3.37284 0.609739 2.20823 1.4503 1.36602L1.50669 1.31417C2.34393 0.501871 3.48237 0 4.73094 0ZM18.1613 22.3502L22.5857 17.4977C22.93 17.1201 23.5152 17.0942 23.8913 17.4392L32.0548 26.3865V4.65178C32.0548 3.88468 31.741 3.18605 31.2361 2.68086C30.7326 2.17433 30.0353 1.86058 29.2684 1.86058H4.73094C3.98459 1.86058 3.30391 2.15771 2.80236 2.63898L2.76322 2.68086C2.25835 3.18672 1.94455 3.88535 1.94455 4.65178V26.6683L11.3393 16.3663C11.6836 15.9888 12.2688 15.9628 12.6449 16.3078L18.16 22.3496L18.1613 22.3502ZM32.0555 29.1325L23.2677 19.4965L19.4132 23.7229L23.6512 28.37C23.9955 28.7476 23.9696 29.3332 23.5928 29.6782C23.216 30.0232 22.6315 29.9973 22.2872 29.6197L12.022 18.3645L1.94522 29.415V30.7112C1.94522 31.4783 2.25902 32.1769 2.76388 32.6821C3.26742 33.1886 3.96468 33.5024 4.7316 33.5024H29.2691C30.0154 33.5024 30.6961 33.2053 31.1976 32.724L31.2368 32.6821C31.7417 32.1763 32.0555 31.4776 32.0555 30.7112V29.1325Z" fill="#7558EA"/>
</svg>
