<svg width="46" height="46" viewBox="0 0 46 46" fill="none" xmlns="http://www.w3.org/2000/svg">
<path d="M17.1491 7.4147C17.1491 6.99332 17.4847 6.65211 17.899 6.65211H18.247C18.6614 6.65211 18.9969 6.99332 18.9969 7.4147C18.9969 7.83608 18.6614 8.17729 18.247 8.17729H17.899C17.4847 8.17729 17.1491 7.83608 17.1491 7.4147ZM44.4822 6.65211H21.0889C20.6745 6.65211 20.339 6.99332 20.339 7.4147C20.339 7.83608 20.6745 8.17729 21.0889 8.17729H37.1911V42.4566C37.1911 42.878 37.5266 43.2192 37.941 43.2192C38.3553 43.2192 38.6908 42.878 38.6908 42.4566V8.17729H44.4812C44.8956 8.17729 45.2311 7.83608 45.2311 7.4147C45.2311 6.99332 44.8946 6.65211 44.4803 6.65211H44.4822ZM34.978 37.8214H8.041V8.17729H14.9581C15.3725 8.17729 15.708 7.83608 15.708 7.4147C15.708 6.99332 15.3725 6.65211 14.9581 6.65211H8.041V0.762588C8.041 0.341209 7.70548 0 7.29112 0C6.87677 0 6.54125 0.341209 6.54125 0.762588V37.8214H0.749878C0.335523 37.8214 0 38.1626 0 38.584C0 39.0054 0.335523 39.3466 0.749878 39.3466H34.9789C35.3933 39.3466 35.7288 39.0054 35.7288 38.584C35.7288 38.1626 35.3923 37.8214 34.978 37.8214ZM37.941 44.1734C37.5266 44.1734 37.1911 44.5146 37.1911 44.936V45.2361C37.1911 45.6575 37.5266 45.9987 37.941 45.9987C38.3553 45.9987 38.6908 45.6575 38.6908 45.2361V44.936C38.6908 44.5146 38.3544 44.1734 37.941 44.1734Z" fill="#7558EA"/>
<path d="M15.708 31.2769V19.36L22.6165 14.8646L32.788 21.4835C32.9129 21.5656 33.0533 21.6037 33.1917 21.6037C33.4388 21.6037 33.6811 21.4796 33.8243 21.2518C34.0474 20.8969 33.9464 20.4247 33.5975 20.1978L23.0213 13.315C22.7742 13.1546 22.4598 13.1546 22.2128 13.315L14.54 18.308L11.6376 20.1969C11.2886 20.4237 11.1867 20.8959 11.4107 21.2508C11.6337 21.6047 12.0971 21.7103 12.447 21.4815L14.2102 20.3347V32.0375C14.2102 32.4589 14.5457 32.8001 14.9601 32.8001H30.2768C30.6912 32.8001 31.0267 32.4589 31.0267 32.0375V22.9979C31.0267 22.5765 30.6912 22.2353 30.2768 22.2353C29.8625 22.2353 29.527 22.5765 29.527 22.9979V31.2749H26.4746V25.7227C26.4746 25.3013 26.139 24.9601 25.7247 24.9601H19.5151C19.1008 24.9601 18.7652 25.3013 18.7652 25.7227V29.1015C18.7652 29.5229 19.1008 29.8641 19.5151 29.8641C19.9295 29.8641 20.265 29.5229 20.265 29.1015V26.4853H24.9748V31.2749H15.7119L15.708 31.2769Z" fill="#564599"/>
</svg>
