<svg width="37" height="39" viewBox="0 0 37 39" fill="none" xmlns="http://www.w3.org/2000/svg">
<path fill-rule="evenodd" clip-rule="evenodd" d="M10.8824 10.6776C7.45435 10.6776 4.67539 13.5828 4.67539 17.1667C4.67539 20.7505 7.45435 23.6558 10.8824 23.6558C14.3104 23.6558 17.0893 20.7505 17.0893 17.1667C17.0893 13.5828 14.3104 10.6776 10.8824 10.6776ZM2.90196 17.1667C2.90196 12.5589 6.47492 8.82353 10.8824 8.82353C15.2898 8.82353 18.8627 12.5589 18.8627 17.1667C18.8627 21.7745 15.2898 25.5098 10.8824 25.5098C6.47492 25.5098 2.90196 21.7745 2.90196 17.1667Z" fill="#43B0FF"/>
<path fill-rule="evenodd" clip-rule="evenodd" d="M0 34.8544C0 28.4916 5.03462 23.3333 11.2451 23.3333C17.4557 23.3333 22.4902 28.4916 22.4902 34.8544V35.3516C22.4902 36.2421 21.8814 37.0108 21.0309 37.1943L18.0008 37.848C14.9611 38.5036 11.8531 38.7119 8.76992 38.4728C8.29356 38.4359 7.93662 38.0102 7.97268 37.5222C8.00873 37.0341 8.42414 36.6684 8.90051 36.7053C11.821 36.9318 14.765 36.7345 17.6444 36.1134L20.6745 35.4599C20.7245 35.4491 20.7602 35.4039 20.7602 35.3516V34.8544C20.7602 29.4704 16.5002 25.1058 11.2451 25.1058C5.99009 25.1058 1.73002 29.4704 1.73002 34.8544V35.3516C1.73002 35.4039 1.7658 35.4491 1.81578 35.4599L4.8458 36.1134C5.31329 36.2143 5.61248 36.6843 5.51406 37.1633C5.41564 37.6422 4.95689 37.9488 4.4894 37.848L1.45938 37.1943C0.608846 37.0108 0 36.2421 0 35.3516V34.8544Z" fill="#43B0FF"/>
<path fill-rule="evenodd" clip-rule="evenodd" d="M26.6137 1.35114C27.1593 -0.293521 29.429 -0.293521 29.9744 1.35114L31.234 5.14878H35.2219C36.9604 5.14878 37.6623 7.44522 36.2342 8.46159L33.078 10.7081L34.2997 14.3915C34.8508 16.0529 33.0134 17.4717 31.607 16.4708L28.2941 14.113L24.9813 16.4708C23.575 17.4717 21.7376 16.0529 22.2886 14.3915L23.5104 10.7081L20.354 8.46159C18.926 7.44522 19.6277 5.14878 21.3663 5.14878H25.3542L26.6137 1.35114ZM28.2941 1.93651L26.8301 6.35089C26.7076 6.71965 26.3699 6.96766 25.9899 6.96766H21.3663L25.0718 9.60503C25.397 9.83644 25.5333 10.2606 25.4058 10.6447L23.969 14.9769L27.7879 12.2587C28.0923 12.0421 28.4961 12.0421 28.8002 12.2587L32.6194 14.9769L31.1825 10.6447C31.0551 10.2606 31.1912 9.83644 31.5163 9.60503L35.2219 6.96766H30.5984C30.2185 6.96766 29.8805 6.71965 29.7583 6.35089L28.2941 1.93651Z" fill="#6B5CA6"/>
</svg>
