<svg width="42" height="40" viewBox="0 0 42 40" fill="none" xmlns="http://www.w3.org/2000/svg">
<path d="M33.3167 0.779282C28.5902 0.779282 24.7448 4.62468 24.7448 9.35127C24.7448 15.4158 31.2669 21.9533 31.5445 22.2286C32.0167 22.6968 32.6461 22.9548 33.3167 22.9548H33.3168C33.9874 22.9548 34.6167 22.6968 35.0889 22.2285C35.3666 21.9531 41.8889 15.4146 41.8889 9.35127C41.8887 4.62468 38.0433 0.779282 33.3167 0.779282ZM34.1398 21.2717C33.9216 21.4881 33.6292 21.6072 33.3166 21.6072C33.0039 21.6072 32.7116 21.4881 32.4935 21.2719C32.4296 21.2083 26.0924 14.8527 26.0924 9.35136C26.0924 5.36787 29.3332 2.12703 33.3167 2.12703C37.3002 2.12703 40.541 5.36787 40.541 9.35136C40.541 14.8515 34.2037 21.2083 34.1398 21.2717Z" fill="#6B5CA6"/>
<path d="M33.3167 4.81534C30.8155 4.81534 28.7807 6.85021 28.7807 9.35137C28.7807 11.8525 30.8155 13.8873 33.3167 13.8873C35.8178 13.8873 37.8527 11.8525 37.8527 9.35137C37.8527 6.85021 35.8178 4.81534 33.3167 4.81534ZM33.3167 12.5397C31.5587 12.5397 30.1284 11.1094 30.1284 9.35137C30.1284 7.59331 31.5587 6.16299 33.3167 6.16299C35.0747 6.16299 36.505 7.59331 36.505 9.35137C36.505 11.1094 35.0747 12.5397 33.3167 12.5397Z" fill="#6B5CA6"/>
<path d="M33.2902 23.4368C32.9207 23.3953 32.5872 23.6619 32.5457 24.0317C32.3518 25.7688 31.8773 27.4118 31.1709 28.918H25.5427C25.9695 27.049 26.2134 25.0346 26.2568 22.9548H30.0048C30.377 22.9548 30.6786 22.6531 30.6786 22.281C30.6786 21.9088 30.377 21.6071 30.0048 21.6071H26.2568C26.2117 19.4471 25.9506 17.3577 25.4926 15.4284C25.6045 15.3081 25.6734 15.1474 25.6734 14.9702C25.6734 14.6698 25.4768 14.4156 25.2053 14.3286C24.8048 12.9283 24.2958 11.6278 23.686 10.4661C23.0112 9.18084 22.2422 8.12131 21.405 7.3049C22.1165 7.51181 22.8148 7.76931 23.497 8.07954C23.8358 8.23344 24.2355 8.08376 24.3894 7.74496C24.5434 7.40616 24.3937 7.00671 24.0549 6.85263C21.849 5.84979 19.4926 5.34128 17.051 5.34128C10.4745 5.34128 4.76155 9.10852 1.95618 14.5982C1.92653 14.6429 1.90263 14.6915 1.88421 14.7428C0.750477 17.0147 0.111328 19.5744 0.111328 22.281C0.111328 24.9877 0.750476 27.5474 1.88412 29.8191C1.90254 29.8704 1.92644 29.919 1.95609 29.9637C4.76146 35.4534 10.4744 39.2206 17.0509 39.2206C21.2438 39.2206 25.2677 37.6769 28.3811 34.8739C31.471 32.0922 33.4257 28.2947 33.8851 24.1812C33.9264 23.8114 33.6601 23.4781 33.2902 23.4368ZM24.1596 28.9181H9.94212C9.49452 27.0653 9.2382 25.0478 9.19291 22.9549H24.9089C24.8636 25.0477 24.6073 27.0653 24.1596 28.9181ZM17.0509 37.8731C15.0326 37.8731 13.0999 36.3092 11.6092 33.4696C11.0998 32.4992 10.6654 31.4225 10.3106 30.2657H23.7913C23.4366 31.4224 23.0022 32.4992 22.4928 33.4696C21.0019 36.3092 19.0693 37.8731 17.0509 37.8731ZM1.47444 22.9549H7.84508C7.88847 25.0347 8.13231 27.049 8.55916 28.9181H2.94428C2.08304 27.0949 1.56527 25.0794 1.47444 22.9549ZM2.94428 15.6441H8.55916C8.13231 17.5131 7.88847 19.5275 7.84508 21.6073H1.47444C1.56527 19.4827 2.08304 17.4672 2.94428 15.6441ZM9.19291 21.6072C9.23829 19.5144 9.49452 17.4969 9.94212 15.644H24.1596C24.6072 17.4968 24.8636 19.5143 24.9088 21.6072H9.19291ZM22.4928 11.0926C23.0022 12.063 23.4365 13.1397 23.7913 14.2965H10.3106C10.6654 13.1398 11.0997 12.063 11.6092 11.0926C13.1 8.25302 15.0326 6.68911 17.0509 6.68911C19.0693 6.68911 21.0019 8.25293 22.4928 11.0926ZM12.6918 7.31011C11.8566 8.1258 11.0893 9.18362 10.416 10.4662C9.81077 11.6189 9.30513 12.9085 8.90595 14.2965H3.66366C5.66367 10.9559 8.87756 8.42247 12.6918 7.31011ZM3.66366 30.2657H8.90586C9.30495 31.6537 9.81068 32.9433 10.4159 34.096C11.0892 35.3786 11.8565 36.4364 12.6917 37.2521C8.87756 36.1396 5.66367 33.6062 3.66366 30.2657ZM21.4037 37.2584C22.2414 36.4418 23.0109 35.3819 23.686 34.096C24.2912 32.9433 24.7968 31.6537 25.196 30.2657H30.4552C28.4502 33.6327 25.2198 36.1544 21.4037 37.2584Z" fill="#43B0FF"/>
</svg>
