<svg width="40" height="40" viewBox="0 0 40 40" fill="none" xmlns="http://www.w3.org/2000/svg">
<g clip-path="url(#clip0_1281_8249)">
<path d="M38.6664 13.2121L22.1058 0.701953C20.8659 -0.234609 19.1341 -0.234688 17.8941 0.702031L1.33358 13.212C-0.29009 14.4387 -0.457746 16.8252 0.977176 18.2684C1.66397 18.9591 2.59507 19.2905 3.51514 19.2452V36.4053C3.51514 37.0526 4.03983 37.5773 4.68702 37.5773H8.28085V38.8275C8.28085 39.4748 8.80554 39.9995 9.45272 39.9995C10.0999 39.9995 10.6246 39.4748 10.6246 38.8275V21.1695H17.656V23.5135H14.1403C13.4931 23.5135 12.9684 24.0382 12.9684 24.6855C12.9684 25.3328 13.4931 25.8576 14.1403 25.8576H17.656V28.2016H15.3122C14.665 28.2016 14.1403 28.7263 14.1403 29.3736C14.1403 30.0209 14.665 30.5456 15.3122 30.5456H17.656V32.8896H14.1403C13.4931 32.8896 12.9684 33.4143 12.9684 34.0616C12.9684 34.709 13.4931 35.2337 14.1403 35.2337H17.656V38.8278C17.656 39.4751 18.1807 39.9998 18.8279 39.9998C19.4751 39.9998 19.9998 39.4752 19.9998 38.8278V37.5777H23.5155V38.8278C23.5155 39.4751 24.0401 39.9998 24.6873 39.9998C25.3345 39.9998 25.8592 39.4752 25.8592 38.8278V35.2337H28.203V38.8278C28.203 39.4751 28.7277 39.9998 29.3749 39.9998C30.0221 39.9998 30.5468 39.4752 30.5468 38.8278V37.5777H35.2344C35.8816 37.5777 36.4063 37.0529 36.4063 36.4056V19.2409C37.3651 19.3102 38.3246 18.9705 39.0224 18.2685C40.4576 16.8255 40.2903 14.4389 38.6664 13.2121ZM27.1096 28.2015C25.8173 28.2015 24.7658 27.0559 24.7658 25.648C24.7658 24.0957 25.8937 22.8772 26.8805 21.988C27.937 23.6037 29.4533 24.0441 29.4533 25.648C29.4533 27.0559 28.4019 28.2015 27.1096 28.2015ZM27.6621 30.5102C27.8258 31.0895 28.0566 32.0088 28.1554 32.8894H25.9074C26.0073 31.9988 26.2423 31.0681 26.4064 30.4902C26.8416 30.5589 27.2514 30.5609 27.6621 30.5102ZM30.5472 35.2334C30.5472 33.605 30.6562 32.3587 29.8453 29.6212C31.0263 28.731 31.7973 27.2822 31.7973 25.648C31.7973 22.3044 28.7988 21.7768 28.5027 19.822C28.3551 18.8482 27.1397 18.48 26.4769 19.2091C25.7919 19.9623 22.422 22.083 22.422 25.648C22.422 27.223 23.1381 28.6259 24.2473 29.5223C23.4191 32.2634 23.5158 33.5125 23.5158 35.2334H20V19.9975C20 19.3502 19.4753 18.8255 18.8281 18.8255H9.45288C8.80569 18.8255 8.281 19.3502 8.281 19.9975V35.2334H5.85897V18.2009L20 7.51813L34.0629 18.1419V35.2334H30.5472ZM37.3608 16.6158C37.0112 16.9673 36.4499 17.0074 36.0551 16.7092L20.7063 5.11414C20.2883 4.79836 19.7116 4.79836 19.2936 5.11414L3.94507 16.7092C3.55007 17.0075 2.98866 16.9673 2.63929 16.6159C2.20413 16.1781 2.25577 15.4531 2.74632 15.0825L19.3069 2.57242C19.7151 2.26406 20.2851 2.26422 20.6932 2.57234L37.2537 15.0825C37.7441 15.453 37.796 16.178 37.3608 16.6158Z" fill="#43B0FF"/>
</g>
<defs>
<clipPath id="clip0_1281_8249">
<rect width="40" height="40" fill="white"/>
</clipPath>
</defs>
</svg>
