<svg width="42" height="42" viewBox="0 0 42 42" fill="none" xmlns="http://www.w3.org/2000/svg">
<path d="M22.9688 30.5156H5.25C3.62155 30.5156 2.29688 29.191 2.29688 27.5625V7.875C2.29688 6.24655 3.62155 4.92188 5.25 4.92188H9.84375C10.3872 4.92188 10.8281 5.3628 10.8281 5.90625C10.8281 6.4497 10.3872 6.89062 9.84375 6.89062H5.25C4.70718 6.89062 4.26562 7.33218 4.26562 7.875V27.5625C4.26562 28.1053 4.70718 28.5469 5.25 28.5469H22.9688C23.5122 28.5469 23.9531 28.9878 23.9531 29.5312C23.9531 30.0747 23.5122 30.5156 22.9688 30.5156Z" fill="#7558EA"/>
<path d="M34.7812 19.9509C34.2378 19.9509 33.7969 19.51 33.7969 18.9665V7.875C33.7969 7.33218 33.3553 6.89062 32.8125 6.89062H28.2188C27.6753 6.89062 27.2344 6.4497 27.2344 5.90625C27.2344 5.3628 27.6753 4.92188 28.2188 4.92188H32.8125C34.441 4.92188 35.7656 6.24655 35.7656 7.875V18.9665C35.7656 19.51 35.3247 19.9509 34.7812 19.9509Z" fill="#7558EA"/>
<path d="M15.0938 35.7656C14.5503 35.7656 14.1094 35.3247 14.1094 34.7812V29.5312C14.1094 28.9878 14.5503 28.5469 15.0938 28.5469C15.6372 28.5469 16.0781 28.9878 16.0781 29.5312V34.7812C16.0781 35.3247 15.6372 35.7656 15.0938 35.7656Z" fill="#7558EA"/>
<path d="M22.9688 35.7656H11.1562C10.6128 35.7656 10.1719 35.3247 10.1719 34.7812C10.1719 34.2378 10.6128 33.7969 11.1562 33.7969H22.9688C23.5122 33.7969 23.9531 34.2378 23.9531 34.7812C23.9531 35.3247 23.5122 35.7656 22.9688 35.7656Z" fill="#7558EA"/>
<path d="M22.9688 25.9219H3.28125C2.7378 25.9219 2.29688 25.481 2.29688 24.9375C2.29688 24.394 2.7378 23.9531 3.28125 23.9531H22.9688C23.5122 23.9531 23.9531 24.394 23.9531 24.9375C23.9531 25.481 23.5122 25.9219 22.9688 25.9219Z" fill="#7558EA"/>
<path d="M26.25 20.6719H11.8125C10.184 20.6719 8.85938 19.3472 8.85938 17.7188V5.25C8.85938 3.62155 10.184 2.29688 11.8125 2.29688H26.25C27.8785 2.29688 29.2031 3.62155 29.2031 5.25V17.7188C29.2031 19.3472 27.8785 20.6719 26.25 20.6719ZM11.8125 4.26562C11.2697 4.26562 10.8281 4.70718 10.8281 5.25V17.7188C10.8281 18.2616 11.2697 18.7031 11.8125 18.7031H26.25C26.7928 18.7031 27.2344 18.2616 27.2344 17.7188V5.25C27.2344 4.70718 26.7928 4.26562 26.25 4.26562H11.8125Z" fill="#7558EA"/>
<path d="M16.8942 17.3907C16.6167 17.3907 16.3411 17.2741 16.1463 17.0472C15.7925 16.6345 15.84 16.0129 16.2527 15.6591L22.3275 10.452C22.6293 10.1938 23.0549 10.1419 23.4086 10.3187L28.6586 12.9437C29.1451 13.1873 29.3418 13.7781 29.0989 14.2646C28.856 14.751 28.2651 14.9471 27.7781 14.7049L23.1126 12.3721L17.5344 17.1536C17.3486 17.3125 17.1204 17.3907 16.8942 17.3907Z" fill="#7558EA"/>
<path d="M9.8445 17.4336C9.54522 17.4336 9.24978 17.2977 9.05624 17.0401C8.73003 16.6049 8.81847 15.9878 9.25298 15.6616L14.503 11.7241C14.8625 11.4549 15.3573 11.4626 15.7091 11.7433L18.9903 14.3683C19.4146 14.7079 19.4832 15.327 19.1435 15.7519C18.8045 16.1755 18.1861 16.246 17.7599 15.9051L15.0746 13.7569L10.4347 17.2368C10.2572 17.3695 10.0502 17.4336 9.8445 17.4336Z" fill="#7558EA"/>
<path d="M18.3708 11.485C16.7423 11.485 15.417 10.1603 15.417 8.53189C15.417 6.90344 16.7423 5.57812 18.3708 5.57812C19.9992 5.57812 21.3239 6.90344 21.3239 8.53189C21.3239 10.1603 19.9992 11.485 18.3708 11.485ZM18.3708 7.54688C17.8279 7.54688 17.3857 7.98908 17.3857 8.53189C17.3857 9.07471 17.8279 9.51627 18.3708 9.51627C18.9136 9.51627 19.3551 9.07471 19.3551 8.53189C19.3551 7.98908 18.9136 7.54688 18.3708 7.54688Z" fill="#7558EA"/>
<path d="M38.7188 39.7031H22.9688C22.4253 39.7031 21.9844 39.2622 21.9844 38.7188V22.9688C21.9844 22.4253 22.4253 21.9844 22.9688 21.9844H38.7188C39.2622 21.9844 39.7031 22.4253 39.7031 22.9688V38.7188C39.7031 39.2622 39.2622 39.7031 38.7188 39.7031ZM23.9531 37.7344H37.7344V23.9531H23.9531V37.7344Z" fill="#7558EA"/>
<path d="M36.0938 28.5688H25.5938C25.0503 28.5688 24.6094 28.1279 24.6094 27.5845C24.6094 27.041 25.0503 26.6001 25.5938 26.6001H36.0938C36.6372 26.6001 37.0781 27.041 37.0781 27.5845C37.0781 28.1279 36.6372 28.5688 36.0938 28.5688Z" fill="#7558EA"/>
<path d="M28.875 29.5532C28.3315 29.5532 27.8906 29.1123 27.8906 28.5688V26.6001C27.8906 26.0566 28.3315 25.6157 28.875 25.6157C29.4185 25.6157 29.8594 26.0566 29.8594 26.6001V28.5688C29.8594 29.1123 29.4185 29.5532 28.875 29.5532Z" fill="#7558EA"/>
<path d="M36.0938 35.1094H25.5938C25.0503 35.1094 24.6094 34.6685 24.6094 34.125C24.6094 33.5815 25.0503 33.1406 25.5938 33.1406H36.0938C36.6372 33.1406 37.0781 33.5815 37.0781 34.125C37.0781 34.6685 36.6372 35.1094 36.0938 35.1094Z" fill="#7558EA"/>
<path d="M32.8134 36.0721H32.791C32.2475 36.06 31.8162 35.6094 31.8284 35.066L31.8713 33.1408C31.8835 32.6044 32.3218 32.1782 32.855 32.1782H32.8775C33.4209 32.1904 33.8522 32.6409 33.8401 33.1844L33.7971 35.1096C33.785 35.646 33.3466 36.0721 32.8134 36.0721Z" fill="#7558EA"/>
</svg>
