<svg width="44" height="44" viewBox="0 0 44 44" fill="none" xmlns="http://www.w3.org/2000/svg">
<g clip-path="url(#clip0_1281_8267)">
<path d="M22 0C9.86921 0 0 9.86921 0 22C0 34.1308 9.86921 44 22 44C34.1308 44 44 34.1308 44 22C44 9.86921 34.1309 0 22 0ZM22 41.6216C16.6105 41.6216 11.7218 39.437 8.17222 35.9075C6.75469 34.498 5.55136 32.8735 4.61441 31.0882C3.18737 28.3695 2.37841 25.2776 2.37841 22C2.37841 11.1806 11.1806 2.37841 22 2.37841C27.1319 2.37841 31.809 4.35963 35.3091 7.59635C37.1239 9.27431 38.6224 11.2894 39.703 13.5418C40.9323 16.1044 41.6216 18.9732 41.6216 22C41.6216 32.8194 32.8194 41.6216 22 41.6216Z" fill="#7558EA"/>
<path d="M14.8149 19.4729C16.1285 19.4729 17.1933 18.408 17.1933 17.0945C17.1933 15.7809 16.1285 14.7161 14.8149 14.7161C13.5014 14.7161 12.4365 15.7809 12.4365 17.0945C12.4365 18.408 13.5014 19.4729 14.8149 19.4729Z" fill="#7558EA"/>
<path d="M29.5317 19.4729C30.8453 19.4729 31.9101 18.408 31.9101 17.0945C31.9101 15.7809 30.8453 14.7161 29.5317 14.7161C28.2182 14.7161 27.1533 15.7809 27.1533 17.0945C27.1533 18.408 28.2182 19.4729 29.5317 19.4729Z" fill="#7558EA"/>
<path d="M21.9576 34.1889C26.5589 34.1889 30.9687 31.8358 33.4935 27.9288L31.4958 26.6379C29.1773 30.2256 24.9364 32.2278 20.6899 31.7378C17.3807 31.3563 14.3204 29.4497 12.5034 26.6379L10.5059 27.9288C12.7044 31.3313 16.4097 33.6383 20.4173 34.1006C20.9318 34.16 21.4455 34.1889 21.9576 34.1889Z" fill="#7558EA"/>
</g>
<defs>
<clipPath id="clip0_1281_8267">
<rect width="44" height="44" fill="white"/>
</clipPath>
</defs>
</svg>
