<svg width="40" height="40" viewBox="0 0 40 40" fill="none" xmlns="http://www.w3.org/2000/svg">
<path d="M38.3753 0.750096C32.0883 0.718188 25.8525 1.8822 20.0003 4.1801C14.2107 1.90855 8.04585 0.745035 1.82657 0.750096C1.69614 0.719219 1.56036 0.71872 1.42971 0.748635C1.29906 0.778549 1.17702 0.83808 1.07302 0.922632C0.969025 1.00718 0.88584 1.1145 0.829888 1.23629C0.773936 1.35809 0.746712 1.49111 0.750317 1.6251V34.8751C0.746712 35.0091 0.773936 35.1421 0.829888 35.2639C0.88584 35.3857 0.969025 35.493 1.07302 35.5776C1.17702 35.6621 1.29906 35.7216 1.42971 35.7516C1.56036 35.7815 1.69614 35.781 1.82657 35.7501C8.04889 35.7819 14.2112 36.9687 20.0003 39.2501C25.8521 36.9431 32.0852 35.7558 38.3753 35.7501C38.6074 35.7501 38.8299 35.6579 38.994 35.4938C39.1581 35.3297 39.2503 35.1072 39.2503 34.8751V1.6251C39.2503 1.39303 39.1581 1.17047 38.994 1.00638C38.8299 0.842283 38.6074 0.750096 38.3753 0.750096ZM2.50032 2.5001C8.18993 2.57882 13.8198 3.67221 19.1253 5.72885V37.1151C13.8048 35.1255 8.18018 34.0717 2.50032 34.0001V2.5001ZM37.5003 34.0001C31.821 34.0689 26.1963 35.1198 20.8753 37.1063V5.72885C26.1808 3.67221 31.8107 2.57882 37.5003 2.5001V34.0001Z" fill="#43B0FF"/>
<path d="M6.875 13.875C7.80326 13.875 8.6935 14.2437 9.34987 14.9001C10.0063 15.5565 10.375 16.4467 10.375 17.375C10.375 17.6071 10.4672 17.8296 10.6313 17.9937C10.7954 18.1578 11.0179 18.25 11.25 18.25C11.4821 18.25 11.7046 18.1578 11.8687 17.9937C12.0328 17.8296 12.125 17.6071 12.125 17.375C12.125 16.4467 12.4937 15.5565 13.1501 14.9001C13.8065 14.2437 14.6967 13.875 15.625 13.875C15.8571 13.875 16.0796 13.7828 16.2437 13.6187C16.4078 13.4546 16.5 13.2321 16.5 13C16.5 12.7679 16.4078 12.5454 16.2437 12.3813C16.0796 12.2172 15.8571 12.125 15.625 12.125C14.6967 12.125 13.8065 11.7563 13.1501 11.0999C12.4937 10.4435 12.125 9.55326 12.125 8.625C12.125 8.39294 12.0328 8.17038 11.8687 8.00628C11.7046 7.84219 11.4821 7.75 11.25 7.75C11.0179 7.75 10.7954 7.84219 10.6313 8.00628C10.4672 8.17038 10.375 8.39294 10.375 8.625C10.375 9.55326 10.0063 10.4435 9.34987 11.0999C8.6935 11.7563 7.80326 12.125 6.875 12.125C6.64294 12.125 6.42038 12.2172 6.25628 12.3813C6.09219 12.5454 6 12.7679 6 13C6 13.2321 6.09219 13.4546 6.25628 13.6187C6.42038 13.7828 6.64294 13.875 6.875 13.875ZM11.25 11.5213C13.0437 13.8488 13 12.1513 11.25 14.4788C9.5 12.125 9.5 13.875 11.25 11.5213Z" fill="#43B0FF"/>
<path d="M15.625 20H6.875C6.64294 20 6.42038 20.0922 6.25628 20.2563C6.09219 20.4204 6 20.6429 6 20.875C6 21.1071 6.09219 21.3296 6.25628 21.4937C6.42038 21.6578 6.64294 21.75 6.875 21.75H15.625C15.8571 21.75 16.0796 21.6578 16.2437 21.4937C16.4078 21.3296 16.5 21.1071 16.5 20.875C16.5 20.6429 16.4078 20.4204 16.2437 20.2563C16.0796 20.0922 15.8571 20 15.625 20Z" fill="#43B0FF"/>
<path d="M15.625 23.5H6.875C6.64294 23.5 6.42038 23.5922 6.25628 23.7563C6.09219 23.9204 6 24.1429 6 24.375C6 24.6071 6.09219 24.8296 6.25628 24.9937C6.42038 25.1578 6.64294 25.25 6.875 25.25H15.625C15.8571 25.25 16.0796 25.1578 16.2437 24.9937C16.4078 24.8296 16.5 24.6071 16.5 24.375C16.5 24.1429 16.4078 23.9204 16.2437 23.7563C16.0796 23.5922 15.8571 23.5 15.625 23.5Z" fill="#43B0FF"/>
<path d="M15.625 27H6.875C6.64294 27 6.42038 27.0922 6.25628 27.2563C6.09219 27.4204 6 27.6429 6 27.875C6 28.1071 6.09219 28.3296 6.25628 28.4937C6.42038 28.6578 6.64294 28.75 6.875 28.75H15.625C15.8571 28.75 16.0796 28.6578 16.2437 28.4937C16.4078 28.3296 16.5 28.1071 16.5 27.875C16.5 27.6429 16.4078 27.4204 16.2437 27.2563C16.0796 27.0922 15.8571 27 15.625 27Z" fill="#43B0FF"/>
<path d="M24.375 13.875C25.3033 13.875 26.1935 14.2437 26.8499 14.9001C27.5063 15.5565 27.875 16.4467 27.875 17.375C27.875 17.6071 27.9672 17.8296 28.1313 17.9937C28.2954 18.1578 28.5179 18.25 28.75 18.25C28.9821 18.25 29.2046 18.1578 29.3687 17.9937C29.5328 17.8296 29.625 17.6071 29.625 17.375C29.625 16.4467 29.9937 15.5565 30.6501 14.9001C31.3065 14.2437 32.1967 13.875 33.125 13.875C33.3571 13.875 33.5796 13.7828 33.7437 13.6187C33.9078 13.4546 34 13.2321 34 13C34 12.7679 33.9078 12.5454 33.7437 12.3813C33.5796 12.2172 33.3571 12.125 33.125 12.125C32.1967 12.125 31.3065 11.7563 30.6501 11.0999C29.9937 10.4435 29.625 9.55326 29.625 8.625C29.625 8.39294 29.5328 8.17038 29.3687 8.00628C29.2046 7.84219 28.9821 7.75 28.75 7.75C28.5179 7.75 28.2954 7.84219 28.1313 8.00628C27.9672 8.17038 27.875 8.39294 27.875 8.625C27.875 9.55326 27.5063 10.4435 26.8499 11.0999C26.1935 11.7563 25.3033 12.125 24.375 12.125C24.1429 12.125 23.9204 12.2172 23.7563 12.3813C23.5922 12.5454 23.5 12.7679 23.5 13C23.5 13.2321 23.5922 13.4546 23.7563 13.6187C23.9204 13.7828 24.1429 13.875 24.375 13.875ZM28.75 11.5213C30.5 13.8488 30.5 12.1513 28.75 14.4788C27 12.125 27 13.875 28.75 11.5213Z" fill="#43B0FF"/>
<path d="M24.375 21.75H33.125C33.3571 21.75 33.5796 21.6578 33.7437 21.4937C33.9078 21.3296 34 21.1071 34 20.875C34 20.6429 33.9078 20.4204 33.7437 20.2563C33.5796 20.0922 33.3571 20 33.125 20H24.375C24.1429 20 23.9204 20.0922 23.7563 20.2563C23.5922 20.4204 23.5 20.6429 23.5 20.875C23.5 21.1071 23.5922 21.3296 23.7563 21.4937C23.9204 21.6578 24.1429 21.75 24.375 21.75Z" fill="#43B0FF"/>
<path d="M24.375 25.25H33.125C33.3571 25.25 33.5796 25.1578 33.7437 24.9937C33.9078 24.8296 34 24.6071 34 24.375C34 24.1429 33.9078 23.9204 33.7437 23.7563C33.5796 23.5922 33.3571 23.5 33.125 23.5H24.375C24.1429 23.5 23.9204 23.5922 23.7563 23.7563C23.5922 23.9204 23.5 24.1429 23.5 24.375C23.5 24.6071 23.5922 24.8296 23.7563 24.9937C23.9204 25.1578 24.1429 25.25 24.375 25.25Z" fill="#43B0FF"/>
<path d="M33.125 27H24.375C24.1429 27 23.9204 27.0922 23.7563 27.2563C23.5922 27.4204 23.5 27.6429 23.5 27.875C23.5 28.1071 23.5922 28.3296 23.7563 28.4937C23.9204 28.6578 24.1429 28.75 24.375 28.75H33.125C33.3571 28.75 33.5796 28.6578 33.7437 28.4937C33.9078 28.3296 34 28.1071 34 27.875C34 27.6429 33.9078 27.4204 33.7437 27.2563C33.5796 27.0922 33.3571 27 33.125 27Z" fill="#43B0FF"/>
</svg>
