<svg width="40" height="40" viewBox="0 0 40 40" fill="none" xmlns="http://www.w3.org/2000/svg">
<g clip-path="url(#clip0_1281_8275)">
<path d="M19.9001 -0.000341831C19.7753 0.0132747 19.6554 0.0560966 19.5501 0.124658L0.350114 12.7997C0.240361 12.8743 0.150906 12.9751 0.0898062 13.0929C0.0287067 13.2108 -0.00211646 13.3419 0.000113739 13.4747V18.5997C-0.0023577 18.7462 0.0354897 18.8907 0.109524 19.0172C0.183557 19.1437 0.290932 19.2475 0.419923 19.3171C0.548914 19.3868 0.694564 19.4197 0.840969 19.4122C0.987374 19.4047 1.12891 19.3571 1.25011 19.2747L2.40011 18.5247V39.1997C2.40014 39.4118 2.48443 39.6153 2.63445 39.7653C2.78448 39.9153 2.98795 39.9996 3.20011 39.9997H36.8001C37.0123 39.9996 37.2158 39.9153 37.3658 39.7653C37.5158 39.6153 37.6001 39.4118 37.6001 39.1997V18.5247L38.7501 19.2747C38.8713 19.3571 39.0129 19.4047 39.1593 19.4122C39.3057 19.4197 39.4513 19.3868 39.5803 19.3171C39.7093 19.2475 39.8167 19.1437 39.8907 19.0172C39.9647 18.8907 40.0026 18.7462 40.0001 18.5997V13.4747C40.0023 13.3419 39.9715 13.2108 39.9104 13.0929C39.8493 12.9751 39.7599 12.8743 39.6501 12.7997L20.4501 0.124658C20.288 0.017609 20.0925 -0.0268206 19.9001 -0.000341831ZM20.0001 1.77466L38.4001 13.9247V17.1247L20.4501 5.24966C20.3174 5.15939 20.1606 5.11111 20.0001 5.11111C19.8396 5.11111 19.6828 5.15939 19.5501 5.24966L1.60011 17.1247V13.9247L20.0001 1.77466ZM20.0001 6.89966L36.0001 17.4497V38.3997H4.00011V17.4497L20.0001 6.89966ZM15.6251 17.5997C12.7464 17.5997 10.4001 19.9459 10.4001 22.8247V23.3247C9.02423 23.6823 8.00011 24.9171 8.00011 26.3997C8.00011 27.8769 9.03165 29.0869 10.4001 29.4497V30.1747C10.4001 31.3858 11.0462 32.4654 12.0001 33.0747V34.3247C12.0001 34.8047 12.3951 35.1997 12.8751 35.1997H14.3251C14.8059 35.1997 15.2001 34.8047 15.2001 34.3247V33.5997H24.8001V34.3247C24.8001 34.8047 25.1943 35.1997 25.6751 35.1997H27.1251C27.6051 35.1997 28.0001 34.8047 28.0001 34.3247V33.0747C28.954 32.4654 29.6001 31.3858 29.6001 30.1747V29.4497C30.9686 29.0869 32.0001 27.8769 32.0001 26.3997C32.0001 24.9171 30.976 23.6823 29.6001 23.3247V22.8247C29.6001 19.9459 27.2539 17.5997 24.3751 17.5997H15.6251ZM15.6251 19.1997H24.3751C26.3892 19.1997 28.0001 20.8106 28.0001 22.8247V23.3247C26.6242 23.6823 25.6001 24.9171 25.6001 26.3997C25.6001 27.0665 25.4364 27.4133 25.2251 27.6247C25.0139 27.836 24.6668 27.9997 24.0001 27.9997H16.0001C15.3339 27.9997 14.9865 27.836 14.7751 27.6247C14.5637 27.4133 14.4001 27.0659 14.4001 26.3997C14.4001 24.9171 13.376 23.6823 12.0001 23.3247V22.8247C12.0001 20.8106 13.6111 19.1997 15.6251 19.1997ZM11.0501 24.7997C11.1329 24.8128 11.2173 24.8128 11.3001 24.7997C12.1448 24.8509 12.8001 25.5405 12.8001 26.3997C12.8001 27.3327 13.0367 28.1862 13.6251 28.7747C14.2135 29.3631 15.0671 29.5997 16.0001 29.5997H24.0001C24.9334 29.5997 25.7868 29.3633 26.3751 28.7747C26.9635 28.186 27.2001 27.3329 27.2001 26.3997C27.2001 25.5576 27.8298 24.8745 28.6501 24.7997C28.7329 24.8128 28.8173 24.8128 28.9001 24.7997C29.7448 24.8509 30.4001 25.5405 30.4001 26.3997C30.4001 27.293 29.6934 27.9997 28.8001 27.9997H28.0001V28.7997V30.1747C28.0001 31.1962 27.1956 31.9997 26.1751 31.9997H13.8251C12.8036 31.9997 12.0001 31.1962 12.0001 30.1747V28.7997V27.9997H11.2001C10.3068 27.9997 9.60011 27.293 9.60011 26.3997C9.60011 25.5576 10.2298 24.8745 11.0501 24.7997Z" fill="#43B0FF"/>
</g>
<defs>
<clipPath id="clip0_1281_8275">
<rect width="40" height="40" fill="white"/>
</clipPath>
</defs>
</svg>
