<svg width="50" height="36" viewBox="0 0 50 36" fill="none" xmlns="http://www.w3.org/2000/svg">
<path d="M35.1929 20.3363C34.352 20.3363 33.5887 20.6731 33.0295 21.2185C31.6419 18.7218 28.9778 17.0278 25.9245 17.0278H12.37C9.3167 17.0278 6.65273 18.7218 5.26504 21.2185C4.70576 20.6732 3.94248 20.3363 3.10156 20.3363C1.39141 20.3363 0 21.7277 0 23.4379V29.8595C0 32.1311 1.84805 33.979 4.11953 33.979H4.24619V34.7964C4.24619 35.3368 4.68428 35.7749 5.22471 35.7749C5.76514 35.7749 6.20322 35.3368 6.20322 34.7964V33.979H14.7572C15.2977 33.979 15.7357 33.5409 15.7357 33.0005C15.7357 32.4601 15.2977 32.022 14.7572 32.022H4.11953C2.92705 32.022 1.95693 31.0519 1.95693 29.8594V23.4378C1.95693 22.8066 2.47041 22.2932 3.10156 22.2932C3.73271 22.2932 4.24619 22.8066 4.24619 23.4378V27.218C4.24619 27.7584 4.68428 28.1965 5.22471 28.1965H33.0697C33.6102 28.1965 34.0482 27.7584 34.0482 27.218V23.4378C34.0482 22.8066 34.5617 22.2932 35.1929 22.2932C35.824 22.2932 36.3375 22.8066 36.3375 23.4378V29.8594C36.3375 31.0519 35.3674 32.022 34.1749 32.022H23.5386C22.9981 32.022 22.5601 32.4601 22.5601 33.0005C22.5601 33.5409 22.9981 33.979 23.5386 33.979H32.0912V34.7964C32.0912 35.3368 32.5293 35.7749 33.0697 35.7749C33.6102 35.7749 34.0482 35.3368 34.0482 34.7964V33.979H34.1749C36.4465 33.979 38.2945 32.1311 38.2945 29.8595V23.4379C38.2944 21.7277 36.9031 20.3363 35.1929 20.3363ZM6.20322 25.1516C6.20322 21.7512 8.96963 18.9848 12.37 18.9848H18.166V26.2396H6.20322V25.1516ZM32.0912 26.2396H20.1229V18.9848H25.9244C29.3248 18.9848 32.0912 21.7512 32.0912 25.1516V26.2396Z" fill="#7558EA"/>
<path d="M49.8551 13.2823L47.4963 7.46436C47.1937 6.71807 46.4779 6.23584 45.6726 6.23584H42.58C41.7747 6.23584 41.0588 6.71807 40.7563 7.46436L38.3975 13.2822C38.1511 13.8898 38.2227 14.5773 38.589 15.1211C38.9553 15.6649 39.5655 15.9896 40.2212 15.9896H43.1479V29.8591C41.1719 30.291 39.6877 32.0536 39.6877 34.1573V34.7962C39.6877 35.3366 40.1258 35.7747 40.6662 35.7747H47.5867C48.1271 35.7747 48.5652 35.3366 48.5652 34.7962V34.1573C48.5652 32.0536 47.081 30.291 45.1049 29.8591V15.9896H47.1331V16.69C47.1331 17.2305 47.5712 17.6686 48.1117 17.6686C48.6521 17.6686 49.0902 17.2305 49.0902 16.69V15.6802C49.3142 15.5371 49.5105 15.3486 49.6637 15.1212C50.0298 14.5774 50.1015 13.8899 49.8551 13.2823ZM46.5845 33.8178H41.668C41.8338 32.6307 42.8558 31.714 44.0878 31.714H44.1646C45.3967 31.714 46.4187 32.6307 46.5845 33.8178ZM40.2166 14.0328C40.2138 14.0311 40.2097 14.025 40.211 14.0176L42.5699 8.19961C42.5715 8.19541 42.5755 8.19277 42.58 8.19277H45.6726C45.6771 8.19277 45.6811 8.19551 45.6828 8.19961L48.0434 14.0216C48.0428 14.0248 48.0387 14.031 48.0314 14.0326L40.2166 14.0328Z" fill="#7558EA"/>
<path d="M8.77627 10.3898H15.0271C16.1062 10.3898 16.9841 9.51191 16.9841 8.43291V2.18203C16.9841 1.10293 16.1062 0.225098 15.0271 0.225098H8.77627C7.69717 0.225098 6.81934 1.10303 6.81934 2.18203V8.43291C6.81934 9.51201 7.69727 10.3898 8.77627 10.3898ZM8.77627 2.18203H15.0271L15.0284 8.43291C15.0284 8.43291 15.028 8.43291 15.0271 8.43291H8.77627V2.18203Z" fill="#7558EA"/>
<path d="M23.2675 13.7756H29.5184C30.5975 13.7756 31.4753 12.8977 31.4753 11.8187V5.56777C31.4753 4.48867 30.5974 3.61084 29.5184 3.61084H23.2675C22.1884 3.61084 21.3105 4.48877 21.3105 5.56777V11.8187C21.3105 12.8977 22.1885 13.7756 23.2675 13.7756ZM23.2675 5.56768H29.5184L29.5196 11.8186C29.5196 11.8186 29.5192 11.8186 29.5184 11.8186H23.2675V5.56768Z" fill="#7558EA"/>
<path d="M19.1475 33.9771C19.6868 33.9771 20.124 33.5398 20.124 33.0005C20.124 32.4611 19.6868 32.0239 19.1475 32.0239C18.6081 32.0239 18.1709 32.4611 18.1709 33.0005C18.1709 33.5398 18.6081 33.9771 19.1475 33.9771Z" fill="#7558EA"/>
<path d="M25.5801 23.3623C26.1194 23.3623 26.5566 22.9251 26.5566 22.3857C26.5566 21.8464 26.1194 21.4092 25.5801 21.4092C25.0407 21.4092 24.6035 21.8464 24.6035 22.3857C24.6035 22.9251 25.0407 23.3623 25.5801 23.3623Z" fill="#7558EA"/>
<path d="M12.8682 23.3623C13.4075 23.3623 13.8447 22.9251 13.8447 22.3857C13.8447 21.8464 13.4075 21.4092 12.8682 21.4092C12.3288 21.4092 11.8916 21.8464 11.8916 22.3857C11.8916 22.9251 12.3288 23.3623 12.8682 23.3623Z" fill="#7558EA"/>
</svg>
