<svg width="47" height="40" viewBox="0 0 47 40" fill="none" xmlns="http://www.w3.org/2000/svg">
<path d="M14.0937 21.6793C14.0937 22.2824 13.6035 22.7726 13.0005 22.7726C12.3974 22.7726 11.9072 22.2824 11.9072 21.6793C11.9072 17.332 13.5049 13.3577 16.1445 10.3109L14.411 8.57742C13.9837 8.15155 13.9837 7.45844 14.411 7.03257C14.8369 6.60527 15.53 6.60527 15.9558 7.03257L17.6765 8.7532C20.7519 5.99219 24.8176 4.31158 29.2764 4.31158C34.0725 4.31158 38.414 6.25514 41.558 9.39915C44.7006 12.5417 46.6442 16.8847 46.6442 21.6808C46.6442 26.4768 44.7006 30.8184 41.558 33.9624C38.414 37.1064 34.0725 39.05 29.2764 39.05H13.0005C12.3974 39.05 11.9072 38.5598 11.9072 37.9567C11.9072 37.3536 12.3974 36.8635 13.0005 36.8635H29.2764C33.4694 36.8635 37.2651 35.1643 40.0118 32.4176C42.7585 29.6708 44.4577 25.8752 44.4577 21.6822C44.4577 17.4892 42.7585 13.6936 40.0118 10.9469C37.2651 8.20014 33.4694 6.50095 29.2764 6.50095C25.0849 6.50095 21.2878 8.20014 18.5411 10.9469C15.7943 13.6936 14.0952 17.4892 14.0952 21.6822L14.0937 21.6793ZM30.0496 22.4525C29.6223 22.8784 28.9306 22.8784 28.5033 22.4525C28.0774 22.0252 28.0774 21.3335 28.5033 20.9062L34.7913 14.6182C35.2186 14.1923 35.9103 14.1923 36.3376 14.6182C36.7634 15.0455 36.7634 15.7372 36.3376 16.1645L30.0496 22.4525ZM23.3228 26.181C23.9259 26.181 24.4161 26.6712 24.4161 27.2743C24.4161 27.8773 23.9259 28.3675 23.3228 28.3675H1.09326C0.490179 28.3675 0 27.8773 0 27.2743C0 26.6697 0.490179 26.181 1.09326 26.181H23.3228ZM23.3228 31.5215C23.9259 31.5215 24.4161 32.0117 24.4161 32.6148C24.4161 33.2178 23.9259 33.708 23.3228 33.708H7.04686C6.44378 33.708 5.9536 33.2178 5.9536 32.6148C5.9536 32.0117 6.44378 31.5215 7.04686 31.5215H23.3228ZM26.514 2.18651C25.9109 2.18651 25.4207 1.69633 25.4207 1.09326C25.4207 0.490179 25.9109 0 26.514 0H32.0403C32.6434 0 33.1335 0.490179 33.1335 1.09326C33.1335 1.69633 32.6434 2.18651 32.0403 2.18651H26.514Z" fill="#7558EA"/>
</svg>
