<svg width="46" height="40" viewBox="0 0 46 40" fill="none" xmlns="http://www.w3.org/2000/svg">
<path d="M41.2084 6.58351H34.134L31.5292 1.3635C31.3661 1.03701 31.0317 0.831534 30.6667 0.83351H15.3334C14.9701 0.833331 14.638 1.03853 14.4756 1.3635L11.8661 6.58351H4.79164C2.14664 6.58666 0.00314453 8.73015 0 11.3751V34.3751C0.00314453 37.0202 2.14664 39.1636 4.79164 39.1668H41.2083C43.8534 39.1636 45.9969 37.0202 46 34.3751V11.3751C45.9969 8.73015 43.8534 6.58666 41.2084 6.58351ZM44.0834 34.3751C44.0834 35.963 42.7962 37.2501 41.2084 37.2501H4.79164C3.20383 37.2501 1.91664 35.963 1.91664 34.3751V11.3751C1.91664 9.78734 3.20383 8.50015 4.79164 8.50015H12.4583C12.8232 8.50212 13.1576 8.29665 13.3208 7.97016L15.9256 2.75015H30.0745L32.6792 7.97016C32.8424 8.29665 33.1768 8.50212 33.5417 8.50015H41.2084C42.7962 8.50015 44.0834 9.78734 44.0834 11.3751V34.3751Z" fill="#43B0FF"/>
<path d="M27.6914 5.19649C27.529 4.87153 27.1969 4.66632 26.8336 4.6665H19.167C18.8055 4.66812 18.4756 4.87306 18.3141 5.19649L16.3975 9.02986L18.1128 9.88661L19.7592 6.58323H26.2414L27.8926 9.88661L29.608 9.02986L27.6914 5.19649Z" fill="#43B0FF"/>
<path d="M31.625 8.5H14.375V10.4166H31.625V8.5Z" fill="#43B0FF"/>
<path d="M40.25 11.375H37.375V13.2916H39.2916V15.2083H37.375V17.125H40.25C40.7793 17.125 41.2084 16.6959 41.2084 16.1666V12.3333C41.2084 11.8041 40.7793 11.375 40.25 11.375Z" fill="#43B0FF"/>
<path d="M6.70863 11.375H4.79199V13.2916H6.70863V11.375Z" fill="#43B0FF"/>
<path d="M8.62536 15.2085H4.79199V17.1251H8.62536V15.2085Z" fill="#43B0FF"/>
<path d="M20.1246 15.2085H18.208V32.4585H20.1246V15.2085Z" fill="#43B0FF"/>
<path d="M13.4166 22.8751V15.2085H11.5V23.8335C11.5 24.3628 11.9291 24.7919 12.4584 24.7919H23V22.8751H13.4166Z" fill="#43B0FF"/>
<path d="M26.8336 15.2085H24.917V32.4585H26.8336V15.2085Z" fill="#43B0FF"/>
<path d="M32.5834 15.2085V20.5617L30.2699 22.8751H25.875V24.7918H30.6666C30.9208 24.7917 31.1645 24.6907 31.3441 24.511L34.2191 21.636C34.3989 21.4563 34.4999 21.2126 34.4999 20.9585V15.2085H32.5834Z" fill="#43B0FF"/>
<path d="M34.2194 26.0308L31.3444 23.1558L29.9893 24.5109L32.5835 27.1051V32.4584H34.5001V26.7084C34.5 26.4542 34.3991 26.2104 34.2194 26.0308Z" fill="#43B0FF"/>
</svg>
