<svg width="40" height="40" viewBox="0 0 40 40" fill="none" xmlns="http://www.w3.org/2000/svg">
<g clip-path="url(#clip0_1281_8196)">
<path d="M28.8223 3.14587C25.5201 0.462431 21.2038 -0.570382 16.9795 0.312274C11.7005 1.41532 7.39366 5.74087 6.26241 11.0759C5.30858 15.5745 6.48397 20.091 9.48726 23.4671C10.9768 25.1417 11.7971 27.2364 11.7971 29.3716V31.7153C11.7971 33.2431 12.7769 34.5456 14.1408 35.0294V36.4809C14.1408 38.4195 15.718 39.9966 17.6565 39.9966H22.344C24.2825 39.9966 25.8596 38.4195 25.8596 36.4809V35.0294C27.2236 34.5456 28.2033 33.2431 28.2033 31.7153V29.3716C28.2033 27.2638 29.048 25.1393 30.5816 23.3896C32.8265 20.8286 34.0627 17.5427 34.0627 14.1372C34.0627 9.85853 32.1526 5.85227 28.8223 3.14587ZM23.5159 36.4809C23.5159 37.1271 22.9901 37.6528 22.344 37.6528H17.6565C17.0103 37.6528 16.4846 37.1271 16.4846 36.4809V35.2309H23.5159V36.4809ZM25.8596 31.7153C25.8596 32.3615 25.3339 32.8872 24.6877 32.8872H15.3127C14.6666 32.8872 14.1408 32.3615 14.1408 31.7153V30.5435H25.8596V31.7153ZM20.0002 19.8932C20.7916 19.8932 21.5827 19.7667 22.344 19.5155V28.1998H17.6565V19.5155C18.4177 19.7667 19.2088 19.8932 20.0002 19.8932ZM18.0412 17.1599L20.0002 13.242L21.9592 17.1599C20.7034 17.6766 19.297 17.6766 18.0412 17.1599ZM28.8191 21.8448C27.1897 23.7038 26.1852 25.9243 25.9264 28.1997H24.6877V17.661C24.6877 17.6595 24.6877 17.658 24.6877 17.6564C24.6877 17.4965 24.6531 17.3203 24.5751 17.1549C24.5711 17.1463 24.5682 17.1373 24.564 17.1288L21.0483 10.0976C20.8498 9.70056 20.4441 9.44978 20.0001 9.44978C19.5562 9.44978 19.1505 9.70056 18.9519 10.0976L15.4363 17.1288C15.3587 17.2843 15.3126 17.4734 15.3126 17.6556C15.3126 17.6577 15.3126 17.6597 15.3126 17.6618V28.1998H14.0769C13.8257 25.9086 12.8399 23.7099 11.2384 21.9095C8.73554 19.0957 7.75749 15.3243 8.55522 11.5621C9.49679 7.12149 13.0749 3.52251 17.4589 2.60649C20.9892 1.86884 24.5922 2.72845 27.3441 4.96478C30.1244 7.22415 31.719 10.5674 31.719 14.1372C31.719 16.9741 30.6891 19.7113 28.8191 21.8448Z" fill="#7558EA"/>
<path d="M3.51562 14.1367H1.17188C0.524687 14.1367 0 14.6614 0 15.3086C0 15.9558 0.524687 16.4805 1.17188 16.4805H3.51562C4.16281 16.4805 4.6875 15.9558 4.6875 15.3086C4.6875 14.6614 4.16281 14.1367 3.51562 14.1367Z" fill="#7558EA"/>
<path d="M4.00055 8.27736L2.34328 6.6201C1.88563 6.16244 1.14367 6.16244 0.686016 6.6201C0.228359 7.07775 0.228359 7.81971 0.686016 8.27736L2.34328 9.93463C2.80102 10.3924 3.54297 10.3922 4.00055 9.93463C4.4582 9.47697 4.4582 8.73502 4.00055 8.27736Z" fill="#7558EA"/>
<path d="M4.00146 20.6826C3.54381 20.2249 2.80186 20.2249 2.3442 20.6826L0.686934 22.3399C0.229355 22.7975 0.229355 23.5395 0.686934 23.9971C1.14451 24.4547 1.88646 24.4548 2.3442 23.9971L4.00146 22.3399C4.45904 21.8822 4.45904 21.1403 4.00146 20.6826Z" fill="#7558EA"/>
<path d="M38.8281 14.1367H36.4844C35.8372 14.1367 35.3125 14.6614 35.3125 15.3086C35.3125 15.9558 35.8372 16.4805 36.4844 16.4805H38.8281C39.4753 16.4805 40 15.9558 40 15.3086C40 14.6614 39.4753 14.1367 38.8281 14.1367Z" fill="#7558EA"/>
<path d="M39.313 6.6201C38.8555 6.16244 38.1134 6.16244 37.6558 6.6201L35.9985 8.27736C35.5409 8.73502 35.5409 9.47697 35.9985 9.93463C36.4561 10.3923 37.1981 10.3923 37.6558 9.93463L39.313 8.27736C39.7707 7.81971 39.7707 7.07775 39.313 6.6201Z" fill="#7558EA"/>
<path d="M39.3131 22.3399L37.6558 20.6826C37.1983 20.2249 36.4563 20.2249 35.9985 20.6826C35.5408 21.1403 35.5409 21.8822 35.9985 22.3399L37.6558 23.9971C38.1133 24.4548 38.8554 24.4548 39.3131 23.9971C39.7707 23.5395 39.7707 22.7975 39.3131 22.3399Z" fill="#7558EA"/>
</g>
<defs>
<clipPath id="clip0_1281_8196">
<rect width="40" height="40" fill="white"/>
</clipPath>
</defs>
</svg>
