<svg width="38" height="38" viewBox="0 0 38 38" fill="none" xmlns="http://www.w3.org/2000/svg">
<g clip-path="url(#clip0_1281_8258)">
<path d="M37.7685 19.6796C38.0772 19.2791 38.0772 18.7209 37.7685 18.3205C37.6835 18.2101 35.6473 15.5869 32.3446 12.9365C30.3932 11.3704 28.401 10.1199 26.4235 9.21968C23.9111 8.07596 21.4135 7.49609 19 7.49609C16.5865 7.49609 14.0889 8.07596 11.5765 9.21968C9.59903 10.1198 7.60692 11.3704 5.65541 12.9365C2.35275 15.5869 0.316562 18.21 0.231507 18.3204C-0.077169 18.7209 -0.077169 19.2791 0.231507 19.6795C0.316562 19.7899 2.35275 22.4131 5.65541 25.0635C7.60685 26.6296 9.59903 27.8801 11.5765 28.7803C14.0889 29.924 16.5865 30.5039 19 30.5039C21.4135 30.5039 23.9111 29.924 26.4235 28.7803C28.401 27.8802 30.3931 26.6296 32.3446 25.0635C35.6473 22.4131 37.6835 19.79 37.7685 19.6796ZM19 28.2773C13.8845 28.2773 9.72267 24.1155 9.72267 19C9.72267 13.8845 13.8845 9.72266 19 9.72266C24.1155 9.72266 28.2774 13.8845 28.2774 19C28.2774 24.1155 24.1155 28.2773 19 28.2773ZM2.55923 18.9995C3.34825 18.085 4.92621 16.3765 7.04894 14.673C7.65739 14.1847 8.33946 13.6764 9.0809 13.1793C8.07435 14.8878 7.49611 16.8775 7.49611 19C7.49611 21.1236 8.07576 23.1139 9.08343 24.823C8.35608 24.3355 7.68723 23.8377 7.08902 23.3591C4.95301 21.6505 3.35537 19.9214 2.55923 18.9995ZM28.9176 24.8215C29.9246 23.1127 30.5039 21.123 30.5039 19C30.5039 16.8761 29.9238 14.8858 28.9159 13.1766C29.6435 13.6641 30.3126 14.1622 30.911 14.6408C33.047 16.3495 34.6445 18.0784 35.4408 19.0005C34.6518 19.915 33.0738 21.6235 30.9511 23.327C30.3422 23.8156 29.6596 24.3241 28.9176 24.8215Z" fill="#43B0FF"/>
<path d="M17.9018 15.2891C17.4919 15.2891 17.1596 15.6213 17.1596 16.0312V18.156H14.5352V16.0312C14.5352 15.6213 14.2029 15.2891 13.793 15.2891C13.3831 15.2891 13.0508 15.6213 13.0508 16.0312V21.9688C13.0508 22.3787 13.3831 22.7109 13.793 22.7109C14.2029 22.7109 14.5352 22.3787 14.5352 21.9688V19.6404H17.1596V21.9688C17.1596 22.3787 17.4919 22.7109 17.9018 22.7109C18.3117 22.7109 18.644 22.3787 18.644 21.9688V16.0312C18.644 15.6213 18.3117 15.2891 17.9018 15.2891Z" fill="#43B0FF"/>
<path d="M1.11328 8.16406C1.72811 8.16406 2.22656 7.66561 2.22656 7.05078V2.22656H7.05078C7.66561 2.22656 8.16406 1.72811 8.16406 1.11328C8.16406 0.498453 7.66561 0 7.05078 0H1.11328C0.498453 0 0 0.498453 0 1.11328V7.05078C0 7.66561 0.498453 8.16406 1.11328 8.16406Z" fill="#43B0FF"/>
<path d="M36.8867 0H30.9492C30.3344 0 29.8359 0.498453 29.8359 1.11328C29.8359 1.72811 30.3344 2.22656 30.9492 2.22656H35.7734V7.05078C35.7734 7.66561 36.2719 8.16406 36.8867 8.16406C37.5015 8.16406 38 7.66561 38 7.05078V1.11328C38 0.498453 37.5015 0 36.8867 0Z" fill="#43B0FF"/>
<path d="M36.8867 29.8359C36.2719 29.8359 35.7734 30.3344 35.7734 30.9492V35.7734H30.9492C30.3344 35.7734 29.8359 36.2719 29.8359 36.8867C29.8359 37.5015 30.3344 38 30.9492 38H36.8867C37.5015 38 38 37.5015 38 36.8867V30.9492C38 30.3344 37.5015 29.8359 36.8867 29.8359Z" fill="#43B0FF"/>
<path d="M7.05078 35.7734H2.22656V30.9492C2.22656 30.3344 1.72811 29.8359 1.11328 29.8359C0.498453 29.8359 0 30.3344 0 30.9492V36.8867C0 37.5015 0.498453 38 1.11328 38H7.05078C7.66561 38 8.16406 37.5015 8.16406 36.8867C8.16406 36.2719 7.66561 35.7734 7.05078 35.7734Z" fill="#43B0FF"/>
<path d="M22.5517 15.2891H20.8701C20.6731 15.2891 20.484 15.3674 20.3448 15.507C20.2056 15.6465 20.1276 15.8356 20.1279 16.0327C20.1279 16.0327 20.1322 18.3165 20.1322 18.9935C20.1322 19.81 20.14 21.95 20.14 21.9715C20.1407 22.1683 20.2196 22.3568 20.3593 22.4956C20.4984 22.6336 20.6863 22.711 20.8821 22.711H20.885C20.9358 22.7109 22.1348 22.7062 22.6138 22.6978C24.3972 22.6667 25.6916 21.1115 25.6916 19.0001C25.6917 16.7803 24.4298 15.2891 22.5517 15.2891ZM22.588 21.2136C22.3661 21.2174 21.9743 21.2206 21.6218 21.2228C21.6195 20.5201 21.6165 19.5003 21.6165 18.9935C21.6165 18.5669 21.6148 17.5032 21.6136 16.7734H22.5516C23.352 16.7734 24.2072 17.3584 24.2072 19C24.2073 20.0877 23.7066 21.1941 22.588 21.2136Z" fill="#43B0FF"/>
</g>
<defs>
<clipPath id="clip0_1281_8258">
<rect width="38" height="38" fill="white"/>
</clipPath>
</defs>
</svg>
