<svg width="40" height="40" viewBox="0 0 40 40" fill="none" xmlns="http://www.w3.org/2000/svg">
<path d="M30.8333 10.6987L21.8495 19.6828C21.4263 20.1057 20.7404 20.1057 20.3172 19.6828C19.8943 19.2596 19.8943 18.5737 20.3172 18.1505L29.3013 9.16667H23.25C22.6518 9.16667 22.1667 8.68164 22.1667 8.08333C22.1667 7.48503 22.6518 7 23.25 7H31.9167C32.5149 7 33 7.48503 33 8.08333V16.75C33 17.3482 32.5149 17.8333 31.9167 17.8333C31.3185 17.8333 30.8333 17.3482 30.8333 16.75V10.6987ZM3.75 22.1667C4.3483 22.1667 4.83333 22.6518 4.83333 23.25C4.83333 23.8482 4.3483 24.3333 3.75 24.3333C3.1517 24.3333 2.66667 24.8185 2.66667 25.4167C2.66667 26.0149 2.18164 26.5 1.58333 26.5C0.98503 26.5 0.5 26.0149 0.5 25.4167C0.5 23.6218 1.95507 22.1667 3.75 22.1667ZM14.5833 24.3333C13.985 24.3333 13.5 23.8482 13.5 23.25C13.5 22.6518 13.985 22.1667 14.5833 22.1667C16.3782 22.1667 17.8333 23.6218 17.8333 25.4167C17.8333 26.0149 17.3482 26.5 16.75 26.5C16.1518 26.5 15.6667 26.0149 15.6667 25.4167C15.6667 24.8185 15.1816 24.3333 14.5833 24.3333ZM15.6667 36.25C15.6667 35.6518 16.1518 35.1667 16.75 35.1667C17.3482 35.1667 17.8333 35.6518 17.8333 36.25C17.8333 38.0449 16.3782 39.5 14.5833 39.5C13.985 39.5 13.5 39.0149 13.5 38.4167C13.5 37.8185 13.985 37.3333 14.5833 37.3333C15.1816 37.3333 15.6667 36.8482 15.6667 36.25ZM0.5 36.25C0.5 35.6518 0.98503 35.1667 1.58333 35.1667C2.18164 35.1667 2.66667 35.6518 2.66667 36.25C2.66667 36.8482 3.1517 37.3333 3.75 37.3333C4.3483 37.3333 4.83333 37.8185 4.83333 38.4167C4.83333 39.0149 4.3483 39.5 3.75 39.5C1.95507 39.5 0.5 38.0449 0.5 36.25ZM0.5 29.75C0.5 29.1518 0.98503 28.6667 1.58333 28.6667C2.18164 28.6667 2.66667 29.1518 2.66667 29.75V31.9167C2.66667 32.5149 2.18164 33 1.58333 33C0.98503 33 0.5 32.5149 0.5 31.9167V29.75ZM17.8333 30.8333V31.9167C17.8333 32.5149 17.3482 33 16.75 33C16.1518 33 15.6667 32.5149 15.6667 31.9167V29.75C15.6667 29.1518 16.1518 28.6667 16.75 28.6667H34.0833C35.8782 28.6667 37.3333 27.2115 37.3333 25.4167V5.91667C37.3333 4.12174 35.8782 2.66667 34.0833 2.66667H14.5833C12.7884 2.66667 11.3333 4.12174 11.3333 5.91667V23.25C11.3333 23.8482 10.8483 24.3333 10.25 24.3333H8.08333C7.48503 24.3333 7 23.8482 7 23.25C7 22.6518 7.48503 22.1667 8.08333 22.1667H9.16667V5.91667C9.16667 2.92513 11.5918 0.5 14.5833 0.5H34.0833C37.0749 0.5 39.5 2.92513 39.5 5.91667V25.4167C39.5 28.4082 37.0749 30.8333 34.0833 30.8333H17.8333ZM8.08333 39.5C7.48503 39.5 7 39.0149 7 38.4167C7 37.8185 7.48503 37.3333 8.08333 37.3333H10.25C10.8483 37.3333 11.3333 37.8185 11.3333 38.4167C11.3333 39.0149 10.8483 39.5 10.25 39.5H8.08333Z" fill="#7558EA"/>
</svg>
